<?xml version="1.0" encoding="utf-8" standalone="no"?>
<!DOCTYPE svg PUBLIC "-//W3C//DTD SVG 1.1//EN"
  "http://www.w3.org/Graphics/SVG/1.1/DTD/svg11.dtd">
<!-- Created with matplotlib (https://matplotlib.org/) -->
<svg height="345.6pt" version="1.1" viewBox="0 0 460.8 345.6" width="460.8pt" xmlns="http://www.w3.org/2000/svg" xmlns:xlink="http://www.w3.org/1999/xlink">
 <metadata>
  <rdf:RDF xmlns:cc="http://creativecommons.org/ns#" xmlns:dc="http://purl.org/dc/elements/1.1/" xmlns:rdf="http://www.w3.org/1999/02/22-rdf-syntax-ns#">
   <cc:Work>
    <dc:type rdf:resource="http://purl.org/dc/dcmitype/StillImage"/>
    <dc:date>2023-03-09T17:20:29.330546</dc:date>
    <dc:format>image/svg+xml</dc:format>
    <dc:creator>
     <cc:Agent>
      <dc:title>Matplotlib v3.3.4, https://matplotlib.org/</dc:title>
     </cc:Agent>
    </dc:creator>
   </cc:Work>
  </rdf:RDF>
 </metadata>
 <defs>
  <style type="text/css">*{stroke-linecap:butt;stroke-linejoin:round;}</style>
 </defs>
 <g id="figure_1">
  <g id="patch_1">
   <path d="M 0 345.6 
L 460.8 345.6 
L 460.8 0 
L 0 0 
z
" style="fill:#ffffff;"/>
  </g>
  <g id="axes_1">
   <g id="patch_2">
    <path d="M 57.6 307.584 
L 414.72 307.584 
L 414.72 41.472 
L 57.6 41.472 
z
" style="fill:#ffffff;"/>
   </g>
   <g id="patch_3">
    <path clip-path="url(#p7daf8a229e)" d="M 58.232071 307.584 
L 59.074832 307.584 
L 59.074832 299.74957 
L 58.232071 299.74957 
z
" style="fill:#1f77b4;"/>
   </g>
   <g id="patch_4">
    <path clip-path="url(#p7daf8a229e)" d="M 59.285522 307.584 
L 60.128283 307.584 
L 60.128283 54.144 
L 59.285522 54.144 
z
" style="fill:#1f77b4;"/>
   </g>
   <g id="patch_5">
    <path clip-path="url(#p7daf8a229e)" d="M 60.338973 307.584 
L 61.181735 307.584 
L 61.181735 231.217325 
L 60.338973 231.217325 
z
" style="fill:#1f77b4;"/>
   </g>
   <g id="patch_6">
    <path clip-path="url(#p7daf8a229e)" d="M 61.392425 307.584 
L 62.235186 307.584 
L 62.235186 269.172475 
L 61.392425 269.172475 
z
" style="fill:#1f77b4;"/>
   </g>
   <g id="patch_7">
    <path clip-path="url(#p7daf8a229e)" d="M 62.445876 307.584 
L 63.288637 307.584 
L 63.288637 284.917397 
L 62.445876 284.917397 
z
" style="fill:#1f77b4;"/>
   </g>
   <g id="patch_8">
    <path clip-path="url(#p7daf8a229e)" d="M 63.499327 307.584 
L 64.342088 307.584 
L 64.342088 291.91514 
L 63.499327 291.91514 
z
" style="fill:#1f77b4;"/>
   </g>
   <g id="patch_9">
    <path clip-path="url(#p7daf8a229e)" d="M 64.552779 307.584 
L 65.39554 307.584 
L 65.39554 296.631011 
L 64.552779 296.631011 
z
" style="fill:#1f77b4;"/>
   </g>
   <g id="patch_10">
    <path clip-path="url(#p7daf8a229e)" d="M 65.60623 307.584 
L 66.448991 307.584 
L 66.448991 299.74957 
L 65.60623 299.74957 
z
" style="fill:#1f77b4;"/>
   </g>
   <g id="patch_11">
    <path clip-path="url(#p7daf8a229e)" d="M 66.659681 307.584 
L 67.502442 307.584 
L 67.502442 300.738382 
L 66.659681 300.738382 
z
" style="fill:#1f77b4;"/>
   </g>
   <g id="patch_12">
    <path clip-path="url(#p7daf8a229e)" d="M 67.713133 307.584 
L 68.555894 307.584 
L 68.555894 303.096317 
L 67.713133 303.096317 
z
" style="fill:#1f77b4;"/>
   </g>
   <g id="patch_13">
    <path clip-path="url(#p7daf8a229e)" d="M 68.766584 307.584 
L 69.609345 307.584 
L 69.609345 303.628754 
L 68.766584 303.628754 
z
" style="fill:#1f77b4;"/>
   </g>
   <g id="patch_14">
    <path clip-path="url(#p7daf8a229e)" d="M 69.820035 307.584 
L 70.662796 307.584 
L 70.662796 303.248442 
L 69.820035 303.248442 
z
" style="fill:#1f77b4;"/>
   </g>
   <g id="patch_15">
    <path clip-path="url(#p7daf8a229e)" d="M 70.873487 307.584 
L 71.716248 307.584 
L 71.716248 303.476629 
L 70.873487 303.476629 
z
" style="fill:#1f77b4;"/>
   </g>
   <g id="patch_16">
    <path clip-path="url(#p7daf8a229e)" d="M 71.926938 307.584 
L 72.769699 307.584 
L 72.769699 304.693628 
L 71.926938 304.693628 
z
" style="fill:#1f77b4;"/>
   </g>
   <g id="patch_17">
    <path clip-path="url(#p7daf8a229e)" d="M 72.980389 307.584 
L 73.82315 307.584 
L 73.82315 305.226065 
L 72.980389 305.226065 
z
" style="fill:#1f77b4;"/>
   </g>
   <g id="patch_18">
    <path clip-path="url(#p7daf8a229e)" d="M 74.033841 307.584 
L 74.876602 307.584 
L 74.876602 305.758502 
L 74.033841 305.758502 
z
" style="fill:#1f77b4;"/>
   </g>
   <g id="patch_19">
    <path clip-path="url(#p7daf8a229e)" d="M 75.087292 307.584 
L 75.930053 307.584 
L 75.930053 305.758502 
L 75.087292 305.758502 
z
" style="fill:#1f77b4;"/>
   </g>
   <g id="patch_20">
    <path clip-path="url(#p7daf8a229e)" d="M 76.140743 307.584 
L 76.983504 307.584 
L 76.983504 306.062752 
L 76.140743 306.062752 
z
" style="fill:#1f77b4;"/>
   </g>
   <g id="patch_21">
    <path clip-path="url(#p7daf8a229e)" d="M 77.194195 307.584 
L 78.036956 307.584 
L 78.036956 306.443064 
L 77.194195 306.443064 
z
" style="fill:#1f77b4;"/>
   </g>
   <g id="patch_22">
    <path clip-path="url(#p7daf8a229e)" d="M 78.247646 307.584 
L 79.090407 307.584 
L 79.090407 306.214876 
L 78.247646 306.214876 
z
" style="fill:#1f77b4;"/>
   </g>
   <g id="patch_23">
    <path clip-path="url(#p7daf8a229e)" d="M 79.301097 307.584 
L 80.143858 307.584 
L 80.143858 306.290939 
L 79.301097 306.290939 
z
" style="fill:#1f77b4;"/>
   </g>
   <g id="patch_24">
    <path clip-path="url(#p7daf8a229e)" d="M 80.354549 307.584 
L 81.19731 307.584 
L 81.19731 306.367001 
L 80.354549 306.367001 
z
" style="fill:#1f77b4;"/>
   </g>
   <g id="patch_25">
    <path clip-path="url(#p7daf8a229e)" d="M 81.408 307.584 
L 82.250761 307.584 
L 82.250761 306.747313 
L 81.408 306.747313 
z
" style="fill:#1f77b4;"/>
   </g>
   <g id="patch_26">
    <path clip-path="url(#p7daf8a229e)" d="M 82.461451 307.584 
L 83.304212 307.584 
L 83.304212 306.823376 
L 82.461451 306.823376 
z
" style="fill:#1f77b4;"/>
   </g>
   <g id="patch_27">
    <path clip-path="url(#p7daf8a229e)" d="M 83.514903 307.584 
L 84.357664 307.584 
L 84.357664 307.051563 
L 83.514903 307.051563 
z
" style="fill:#1f77b4;"/>
   </g>
   <g id="patch_28">
    <path clip-path="url(#p7daf8a229e)" d="M 84.568354 307.584 
L 85.411115 307.584 
L 85.411115 306.823376 
L 84.568354 306.823376 
z
" style="fill:#1f77b4;"/>
   </g>
   <g id="patch_29">
    <path clip-path="url(#p7daf8a229e)" d="M 85.621805 307.584 
L 86.464566 307.584 
L 86.464566 306.595188 
L 85.621805 306.595188 
z
" style="fill:#1f77b4;"/>
   </g>
   <g id="patch_30">
    <path clip-path="url(#p7daf8a229e)" d="M 86.675257 307.584 
L 87.518018 307.584 
L 87.518018 307.051563 
L 86.675257 307.051563 
z
" style="fill:#1f77b4;"/>
   </g>
   <g id="patch_31">
    <path clip-path="url(#p7daf8a229e)" d="M 87.728708 307.584 
L 88.571469 307.584 
L 88.571469 307.27975 
L 87.728708 307.27975 
z
" style="fill:#1f77b4;"/>
   </g>
   <g id="patch_32">
    <path clip-path="url(#p7daf8a229e)" d="M 88.782159 307.584 
L 89.62492 307.584 
L 89.62492 307.27975 
L 88.782159 307.27975 
z
" style="fill:#1f77b4;"/>
   </g>
   <g id="patch_33">
    <path clip-path="url(#p7daf8a229e)" d="M 89.835611 307.584 
L 90.678372 307.584 
L 90.678372 306.975501 
L 89.835611 306.975501 
z
" style="fill:#1f77b4;"/>
   </g>
   <g id="patch_34">
    <path clip-path="url(#p7daf8a229e)" d="M 90.889062 307.584 
L 91.731823 307.584 
L 91.731823 306.747313 
L 90.889062 306.747313 
z
" style="fill:#1f77b4;"/>
   </g>
   <g id="patch_35">
    <path clip-path="url(#p7daf8a229e)" d="M 91.942513 307.584 
L 92.785274 307.584 
L 92.785274 307.127625 
L 91.942513 307.127625 
z
" style="fill:#1f77b4;"/>
   </g>
   <g id="patch_36">
    <path clip-path="url(#p7daf8a229e)" d="M 92.995965 307.584 
L 93.838726 307.584 
L 93.838726 307.203688 
L 92.995965 307.203688 
z
" style="fill:#1f77b4;"/>
   </g>
   <g id="patch_37">
    <path clip-path="url(#p7daf8a229e)" d="M 94.049416 307.584 
L 94.892177 307.584 
L 94.892177 307.355813 
L 94.049416 307.355813 
z
" style="fill:#1f77b4;"/>
   </g>
   <g id="patch_38">
    <path clip-path="url(#p7daf8a229e)" d="M 95.102867 307.584 
L 95.945628 307.584 
L 95.945628 307.27975 
L 95.102867 307.27975 
z
" style="fill:#1f77b4;"/>
   </g>
   <g id="patch_39">
    <path clip-path="url(#p7daf8a229e)" d="M 96.156319 307.584 
L 96.99908 307.584 
L 96.99908 307.355813 
L 96.156319 307.355813 
z
" style="fill:#1f77b4;"/>
   </g>
   <g id="patch_40">
    <path clip-path="url(#p7daf8a229e)" d="M 97.20977 307.584 
L 98.052531 307.584 
L 98.052531 306.823376 
L 97.20977 306.823376 
z
" style="fill:#1f77b4;"/>
   </g>
   <g id="patch_41">
    <path clip-path="url(#p7daf8a229e)" d="M 98.263221 307.584 
L 99.105982 307.584 
L 99.105982 307.203688 
L 98.263221 307.203688 
z
" style="fill:#1f77b4;"/>
   </g>
   <g id="patch_42">
    <path clip-path="url(#p7daf8a229e)" d="M 99.316673 307.584 
L 100.159434 307.584 
L 100.159434 307.431875 
L 99.316673 307.431875 
z
" style="fill:#1f77b4;"/>
   </g>
   <g id="patch_43">
    <path clip-path="url(#p7daf8a229e)" d="M 100.370124 307.584 
L 101.212885 307.584 
L 101.212885 307.431875 
L 100.370124 307.431875 
z
" style="fill:#1f77b4;"/>
   </g>
   <g id="patch_44">
    <path clip-path="url(#p7daf8a229e)" d="M 101.423575 307.584 
L 102.266336 307.584 
L 102.266336 307.051563 
L 101.423575 307.051563 
z
" style="fill:#1f77b4;"/>
   </g>
   <g id="patch_45">
    <path clip-path="url(#p7daf8a229e)" d="M 102.477027 307.584 
L 103.319788 307.584 
L 103.319788 307.431875 
L 102.477027 307.431875 
z
" style="fill:#1f77b4;"/>
   </g>
   <g id="patch_46">
    <path clip-path="url(#p7daf8a229e)" d="M 103.530478 307.584 
L 104.373239 307.584 
L 104.373239 307.507938 
L 103.530478 307.507938 
z
" style="fill:#1f77b4;"/>
   </g>
   <g id="patch_47">
    <path clip-path="url(#p7daf8a229e)" d="M 104.583929 307.584 
L 105.42669 307.584 
L 105.42669 307.355813 
L 104.583929 307.355813 
z
" style="fill:#1f77b4;"/>
   </g>
   <g id="patch_48">
    <path clip-path="url(#p7daf8a229e)" d="M 105.637381 307.584 
L 106.480142 307.584 
L 106.480142 307.355813 
L 105.637381 307.355813 
z
" style="fill:#1f77b4;"/>
   </g>
   <g id="patch_49">
    <path clip-path="url(#p7daf8a229e)" d="M 106.690832 307.584 
L 107.533593 307.584 
L 107.533593 307.127625 
L 106.690832 307.127625 
z
" style="fill:#1f77b4;"/>
   </g>
   <g id="patch_50">
    <path clip-path="url(#p7daf8a229e)" d="M 107.744283 307.584 
L 108.587044 307.584 
L 108.587044 307.507938 
L 107.744283 307.507938 
z
" style="fill:#1f77b4;"/>
   </g>
   <g id="patch_51">
    <path clip-path="url(#p7daf8a229e)" d="M 108.797735 307.584 
L 109.640496 307.584 
L 109.640496 307.27975 
L 108.797735 307.27975 
z
" style="fill:#1f77b4;"/>
   </g>
   <g id="patch_52">
    <path clip-path="url(#p7daf8a229e)" d="M 109.851186 307.584 
L 110.693947 307.584 
L 110.693947 307.127625 
L 109.851186 307.127625 
z
" style="fill:#1f77b4;"/>
   </g>
   <g id="patch_53">
    <path clip-path="url(#p7daf8a229e)" d="M 110.904637 307.584 
L 111.747398 307.584 
L 111.747398 307.27975 
L 110.904637 307.27975 
z
" style="fill:#1f77b4;"/>
   </g>
   <g id="patch_54">
    <path clip-path="url(#p7daf8a229e)" d="M 111.958088 307.584 
L 112.80085 307.584 
L 112.80085 307.203688 
L 111.958088 307.203688 
z
" style="fill:#1f77b4;"/>
   </g>
   <g id="patch_55">
    <path clip-path="url(#p7daf8a229e)" d="M 113.01154 307.584 
L 113.854301 307.584 
L 113.854301 307.431875 
L 113.01154 307.431875 
z
" style="fill:#1f77b4;"/>
   </g>
   <g id="patch_56">
    <path clip-path="url(#p7daf8a229e)" d="M 114.064991 307.584 
L 114.907752 307.584 
L 114.907752 307.203688 
L 114.064991 307.203688 
z
" style="fill:#1f77b4;"/>
   </g>
   <g id="patch_57">
    <path clip-path="url(#p7daf8a229e)" d="M 115.118442 307.584 
L 115.961204 307.584 
L 115.961204 307.27975 
L 115.118442 307.27975 
z
" style="fill:#1f77b4;"/>
   </g>
   <g id="patch_58">
    <path clip-path="url(#p7daf8a229e)" d="M 116.171894 307.584 
L 117.014655 307.584 
L 117.014655 307.431875 
L 116.171894 307.431875 
z
" style="fill:#1f77b4;"/>
   </g>
   <g id="patch_59">
    <path clip-path="url(#p7daf8a229e)" d="M 117.225345 307.584 
L 118.068106 307.584 
L 118.068106 307.431875 
L 117.225345 307.431875 
z
" style="fill:#1f77b4;"/>
   </g>
   <g id="patch_60">
    <path clip-path="url(#p7daf8a229e)" d="M 118.278796 307.584 
L 119.121558 307.584 
L 119.121558 307.27975 
L 118.278796 307.27975 
z
" style="fill:#1f77b4;"/>
   </g>
   <g id="patch_61">
    <path clip-path="url(#p7daf8a229e)" d="M 119.332248 307.584 
L 120.175009 307.584 
L 120.175009 307.507938 
L 119.332248 307.507938 
z
" style="fill:#1f77b4;"/>
   </g>
   <g id="patch_62">
    <path clip-path="url(#p7daf8a229e)" d="M 120.385699 307.584 
L 121.22846 307.584 
L 121.22846 307.584 
L 120.385699 307.584 
z
" style="fill:#1f77b4;"/>
   </g>
   <g id="patch_63">
    <path clip-path="url(#p7daf8a229e)" d="M 121.43915 307.584 
L 122.281912 307.584 
L 122.281912 307.584 
L 121.43915 307.584 
z
" style="fill:#1f77b4;"/>
   </g>
   <g id="patch_64">
    <path clip-path="url(#p7daf8a229e)" d="M 122.492602 307.584 
L 123.335363 307.584 
L 123.335363 307.355813 
L 122.492602 307.355813 
z
" style="fill:#1f77b4;"/>
   </g>
   <g id="patch_65">
    <path clip-path="url(#p7daf8a229e)" d="M 123.546053 307.584 
L 124.388814 307.584 
L 124.388814 307.355813 
L 123.546053 307.355813 
z
" style="fill:#1f77b4;"/>
   </g>
   <g id="patch_66">
    <path clip-path="url(#p7daf8a229e)" d="M 124.599504 307.584 
L 125.442265 307.584 
L 125.442265 307.507938 
L 124.599504 307.507938 
z
" style="fill:#1f77b4;"/>
   </g>
   <g id="patch_67">
    <path clip-path="url(#p7daf8a229e)" d="M 125.652956 307.584 
L 126.495717 307.584 
L 126.495717 307.507938 
L 125.652956 307.507938 
z
" style="fill:#1f77b4;"/>
   </g>
   <g id="patch_68">
    <path clip-path="url(#p7daf8a229e)" d="M 126.706407 307.584 
L 127.549168 307.584 
L 127.549168 307.431875 
L 126.706407 307.431875 
z
" style="fill:#1f77b4;"/>
   </g>
   <g id="patch_69">
    <path clip-path="url(#p7daf8a229e)" d="M 127.759858 307.584 
L 128.602619 307.584 
L 128.602619 307.584 
L 127.759858 307.584 
z
" style="fill:#1f77b4;"/>
   </g>
   <g id="patch_70">
    <path clip-path="url(#p7daf8a229e)" d="M 128.81331 307.584 
L 129.656071 307.584 
L 129.656071 307.507938 
L 128.81331 307.507938 
z
" style="fill:#1f77b4;"/>
   </g>
   <g id="patch_71">
    <path clip-path="url(#p7daf8a229e)" d="M 129.866761 307.584 
L 130.709522 307.584 
L 130.709522 307.584 
L 129.866761 307.584 
z
" style="fill:#1f77b4;"/>
   </g>
   <g id="patch_72">
    <path clip-path="url(#p7daf8a229e)" d="M 130.920212 307.584 
L 131.762973 307.584 
L 131.762973 307.507938 
L 130.920212 307.507938 
z
" style="fill:#1f77b4;"/>
   </g>
   <g id="patch_73">
    <path clip-path="url(#p7daf8a229e)" d="M 131.973664 307.584 
L 132.816425 307.584 
L 132.816425 307.584 
L 131.973664 307.584 
z
" style="fill:#1f77b4;"/>
   </g>
   <g id="patch_74">
    <path clip-path="url(#p7daf8a229e)" d="M 133.027115 307.584 
L 133.869876 307.584 
L 133.869876 307.584 
L 133.027115 307.584 
z
" style="fill:#1f77b4;"/>
   </g>
   <g id="patch_75">
    <path clip-path="url(#p7daf8a229e)" d="M 134.080566 307.584 
L 134.923327 307.584 
L 134.923327 307.507938 
L 134.080566 307.507938 
z
" style="fill:#1f77b4;"/>
   </g>
   <g id="patch_76">
    <path clip-path="url(#p7daf8a229e)" d="M 135.134018 307.584 
L 135.976779 307.584 
L 135.976779 307.507938 
L 135.134018 307.507938 
z
" style="fill:#1f77b4;"/>
   </g>
   <g id="patch_77">
    <path clip-path="url(#p7daf8a229e)" d="M 136.187469 307.584 
L 137.03023 307.584 
L 137.03023 307.507938 
L 136.187469 307.507938 
z
" style="fill:#1f77b4;"/>
   </g>
   <g id="patch_78">
    <path clip-path="url(#p7daf8a229e)" d="M 137.24092 307.584 
L 138.083681 307.584 
L 138.083681 307.431875 
L 137.24092 307.431875 
z
" style="fill:#1f77b4;"/>
   </g>
   <g id="patch_79">
    <path clip-path="url(#p7daf8a229e)" d="M 138.294372 307.584 
L 139.137133 307.584 
L 139.137133 307.507938 
L 138.294372 307.507938 
z
" style="fill:#1f77b4;"/>
   </g>
   <g id="patch_80">
    <path clip-path="url(#p7daf8a229e)" d="M 139.347823 307.584 
L 140.190584 307.584 
L 140.190584 307.584 
L 139.347823 307.584 
z
" style="fill:#1f77b4;"/>
   </g>
   <g id="patch_81">
    <path clip-path="url(#p7daf8a229e)" d="M 140.401274 307.584 
L 141.244035 307.584 
L 141.244035 307.507938 
L 140.401274 307.507938 
z
" style="fill:#1f77b4;"/>
   </g>
   <g id="patch_82">
    <path clip-path="url(#p7daf8a229e)" d="M 141.454726 307.584 
L 142.297487 307.584 
L 142.297487 307.584 
L 141.454726 307.584 
z
" style="fill:#1f77b4;"/>
   </g>
   <g id="patch_83">
    <path clip-path="url(#p7daf8a229e)" d="M 142.508177 307.584 
L 143.350938 307.584 
L 143.350938 307.355813 
L 142.508177 307.355813 
z
" style="fill:#1f77b4;"/>
   </g>
   <g id="patch_84">
    <path clip-path="url(#p7daf8a229e)" d="M 143.561628 307.584 
L 144.404389 307.584 
L 144.404389 307.507938 
L 143.561628 307.507938 
z
" style="fill:#1f77b4;"/>
   </g>
   <g id="patch_85">
    <path clip-path="url(#p7daf8a229e)" d="M 144.61508 307.584 
L 145.457841 307.584 
L 145.457841 307.431875 
L 144.61508 307.431875 
z
" style="fill:#1f77b4;"/>
   </g>
   <g id="patch_86">
    <path clip-path="url(#p7daf8a229e)" d="M 145.668531 307.584 
L 146.511292 307.584 
L 146.511292 307.584 
L 145.668531 307.584 
z
" style="fill:#1f77b4;"/>
   </g>
   <g id="patch_87">
    <path clip-path="url(#p7daf8a229e)" d="M 146.721982 307.584 
L 147.564743 307.584 
L 147.564743 307.431875 
L 146.721982 307.431875 
z
" style="fill:#1f77b4;"/>
   </g>
   <g id="patch_88">
    <path clip-path="url(#p7daf8a229e)" d="M 147.775434 307.584 
L 148.618195 307.584 
L 148.618195 307.507938 
L 147.775434 307.507938 
z
" style="fill:#1f77b4;"/>
   </g>
   <g id="patch_89">
    <path clip-path="url(#p7daf8a229e)" d="M 148.828885 307.584 
L 149.671646 307.584 
L 149.671646 307.584 
L 148.828885 307.584 
z
" style="fill:#1f77b4;"/>
   </g>
   <g id="patch_90">
    <path clip-path="url(#p7daf8a229e)" d="M 149.882336 307.584 
L 150.725097 307.584 
L 150.725097 307.431875 
L 149.882336 307.431875 
z
" style="fill:#1f77b4;"/>
   </g>
   <g id="patch_91">
    <path clip-path="url(#p7daf8a229e)" d="M 150.935788 307.584 
L 151.778549 307.584 
L 151.778549 307.584 
L 150.935788 307.584 
z
" style="fill:#1f77b4;"/>
   </g>
   <g id="patch_92">
    <path clip-path="url(#p7daf8a229e)" d="M 151.989239 307.584 
L 152.832 307.584 
L 152.832 307.355813 
L 151.989239 307.355813 
z
" style="fill:#1f77b4;"/>
   </g>
   <g id="patch_93">
    <path clip-path="url(#p7daf8a229e)" d="M 153.04269 307.584 
L 153.885451 307.584 
L 153.885451 307.507938 
L 153.04269 307.507938 
z
" style="fill:#1f77b4;"/>
   </g>
   <g id="patch_94">
    <path clip-path="url(#p7daf8a229e)" d="M 154.096142 307.584 
L 154.938903 307.584 
L 154.938903 307.507938 
L 154.096142 307.507938 
z
" style="fill:#1f77b4;"/>
   </g>
   <g id="patch_95">
    <path clip-path="url(#p7daf8a229e)" d="M 155.149593 307.584 
L 155.992354 307.584 
L 155.992354 307.507938 
L 155.149593 307.507938 
z
" style="fill:#1f77b4;"/>
   </g>
   <g id="patch_96">
    <path clip-path="url(#p7daf8a229e)" d="M 156.203044 307.584 
L 157.045805 307.584 
L 157.045805 307.431875 
L 156.203044 307.431875 
z
" style="fill:#1f77b4;"/>
   </g>
   <g id="patch_97">
    <path clip-path="url(#p7daf8a229e)" d="M 157.256496 307.584 
L 158.099257 307.584 
L 158.099257 307.507938 
L 157.256496 307.507938 
z
" style="fill:#1f77b4;"/>
   </g>
   <g id="patch_98">
    <path clip-path="url(#p7daf8a229e)" d="M 158.309947 307.584 
L 159.152708 307.584 
L 159.152708 307.507938 
L 158.309947 307.507938 
z
" style="fill:#1f77b4;"/>
   </g>
   <g id="patch_99">
    <path clip-path="url(#p7daf8a229e)" d="M 159.363398 307.584 
L 160.206159 307.584 
L 160.206159 307.584 
L 159.363398 307.584 
z
" style="fill:#1f77b4;"/>
   </g>
   <g id="patch_100">
    <path clip-path="url(#p7daf8a229e)" d="M 160.41685 307.584 
L 161.259611 307.584 
L 161.259611 307.431875 
L 160.41685 307.431875 
z
" style="fill:#1f77b4;"/>
   </g>
   <g id="patch_101">
    <path clip-path="url(#p7daf8a229e)" d="M 161.470301 307.584 
L 162.313062 307.584 
L 162.313062 307.584 
L 161.470301 307.584 
z
" style="fill:#1f77b4;"/>
   </g>
   <g id="patch_102">
    <path clip-path="url(#p7daf8a229e)" d="M 162.523752 307.584 
L 163.366513 307.584 
L 163.366513 307.507938 
L 162.523752 307.507938 
z
" style="fill:#1f77b4;"/>
   </g>
   <g id="patch_103">
    <path clip-path="url(#p7daf8a229e)" d="M 163.577204 307.584 
L 164.419965 307.584 
L 164.419965 307.584 
L 163.577204 307.584 
z
" style="fill:#1f77b4;"/>
   </g>
   <g id="patch_104">
    <path clip-path="url(#p7daf8a229e)" d="M 164.630655 307.584 
L 165.473416 307.584 
L 165.473416 307.584 
L 164.630655 307.584 
z
" style="fill:#1f77b4;"/>
   </g>
   <g id="patch_105">
    <path clip-path="url(#p7daf8a229e)" d="M 165.684106 307.584 
L 166.526867 307.584 
L 166.526867 307.507938 
L 165.684106 307.507938 
z
" style="fill:#1f77b4;"/>
   </g>
   <g id="patch_106">
    <path clip-path="url(#p7daf8a229e)" d="M 166.737558 307.584 
L 167.580319 307.584 
L 167.580319 307.507938 
L 166.737558 307.507938 
z
" style="fill:#1f77b4;"/>
   </g>
   <g id="patch_107">
    <path clip-path="url(#p7daf8a229e)" d="M 167.791009 307.584 
L 168.63377 307.584 
L 168.63377 307.584 
L 167.791009 307.584 
z
" style="fill:#1f77b4;"/>
   </g>
   <g id="patch_108">
    <path clip-path="url(#p7daf8a229e)" d="M 168.84446 307.584 
L 169.687221 307.584 
L 169.687221 307.507938 
L 168.84446 307.507938 
z
" style="fill:#1f77b4;"/>
   </g>
   <g id="patch_109">
    <path clip-path="url(#p7daf8a229e)" d="M 169.897912 307.584 
L 170.740673 307.584 
L 170.740673 307.584 
L 169.897912 307.584 
z
" style="fill:#1f77b4;"/>
   </g>
   <g id="patch_110">
    <path clip-path="url(#p7daf8a229e)" d="M 170.951363 307.584 
L 171.794124 307.584 
L 171.794124 307.584 
L 170.951363 307.584 
z
" style="fill:#1f77b4;"/>
   </g>
   <g id="patch_111">
    <path clip-path="url(#p7daf8a229e)" d="M 172.004814 307.584 
L 172.847575 307.584 
L 172.847575 307.584 
L 172.004814 307.584 
z
" style="fill:#1f77b4;"/>
   </g>
   <g id="patch_112">
    <path clip-path="url(#p7daf8a229e)" d="M 173.058265 307.584 
L 173.901027 307.584 
L 173.901027 307.584 
L 173.058265 307.584 
z
" style="fill:#1f77b4;"/>
   </g>
   <g id="patch_113">
    <path clip-path="url(#p7daf8a229e)" d="M 174.111717 307.584 
L 174.954478 307.584 
L 174.954478 307.584 
L 174.111717 307.584 
z
" style="fill:#1f77b4;"/>
   </g>
   <g id="patch_114">
    <path clip-path="url(#p7daf8a229e)" d="M 175.165168 307.584 
L 176.007929 307.584 
L 176.007929 307.507938 
L 175.165168 307.507938 
z
" style="fill:#1f77b4;"/>
   </g>
   <g id="patch_115">
    <path clip-path="url(#p7daf8a229e)" d="M 176.218619 307.584 
L 177.061381 307.584 
L 177.061381 307.584 
L 176.218619 307.584 
z
" style="fill:#1f77b4;"/>
   </g>
   <g id="patch_116">
    <path clip-path="url(#p7daf8a229e)" d="M 177.272071 307.584 
L 178.114832 307.584 
L 178.114832 307.507938 
L 177.272071 307.507938 
z
" style="fill:#1f77b4;"/>
   </g>
   <g id="patch_117">
    <path clip-path="url(#p7daf8a229e)" d="M 178.325522 307.584 
L 179.168283 307.584 
L 179.168283 307.507938 
L 178.325522 307.507938 
z
" style="fill:#1f77b4;"/>
   </g>
   <g id="patch_118">
    <path clip-path="url(#p7daf8a229e)" d="M 179.378973 307.584 
L 180.221735 307.584 
L 180.221735 307.507938 
L 179.378973 307.507938 
z
" style="fill:#1f77b4;"/>
   </g>
   <g id="patch_119">
    <path clip-path="url(#p7daf8a229e)" d="M 180.432425 307.584 
L 181.275186 307.584 
L 181.275186 307.507938 
L 180.432425 307.507938 
z
" style="fill:#1f77b4;"/>
   </g>
   <g id="patch_120">
    <path clip-path="url(#p7daf8a229e)" d="M 181.485876 307.584 
L 182.328637 307.584 
L 182.328637 307.584 
L 181.485876 307.584 
z
" style="fill:#1f77b4;"/>
   </g>
   <g id="patch_121">
    <path clip-path="url(#p7daf8a229e)" d="M 182.539327 307.584 
L 183.382088 307.584 
L 183.382088 307.584 
L 182.539327 307.584 
z
" style="fill:#1f77b4;"/>
   </g>
   <g id="patch_122">
    <path clip-path="url(#p7daf8a229e)" d="M 183.592779 307.584 
L 184.43554 307.584 
L 184.43554 307.584 
L 183.592779 307.584 
z
" style="fill:#1f77b4;"/>
   </g>
   <g id="patch_123">
    <path clip-path="url(#p7daf8a229e)" d="M 184.64623 307.584 
L 185.488991 307.584 
L 185.488991 307.584 
L 184.64623 307.584 
z
" style="fill:#1f77b4;"/>
   </g>
   <g id="patch_124">
    <path clip-path="url(#p7daf8a229e)" d="M 185.699681 307.584 
L 186.542442 307.584 
L 186.542442 307.507938 
L 185.699681 307.507938 
z
" style="fill:#1f77b4;"/>
   </g>
   <g id="patch_125">
    <path clip-path="url(#p7daf8a229e)" d="M 186.753133 307.584 
L 187.595894 307.584 
L 187.595894 307.584 
L 186.753133 307.584 
z
" style="fill:#1f77b4;"/>
   </g>
   <g id="patch_126">
    <path clip-path="url(#p7daf8a229e)" d="M 187.806584 307.584 
L 188.649345 307.584 
L 188.649345 307.584 
L 187.806584 307.584 
z
" style="fill:#1f77b4;"/>
   </g>
   <g id="patch_127">
    <path clip-path="url(#p7daf8a229e)" d="M 188.860035 307.584 
L 189.702796 307.584 
L 189.702796 307.507938 
L 188.860035 307.507938 
z
" style="fill:#1f77b4;"/>
   </g>
   <g id="patch_128">
    <path clip-path="url(#p7daf8a229e)" d="M 189.913487 307.584 
L 190.756248 307.584 
L 190.756248 307.584 
L 189.913487 307.584 
z
" style="fill:#1f77b4;"/>
   </g>
   <g id="patch_129">
    <path clip-path="url(#p7daf8a229e)" d="M 190.966938 307.584 
L 191.809699 307.584 
L 191.809699 307.584 
L 190.966938 307.584 
z
" style="fill:#1f77b4;"/>
   </g>
   <g id="patch_130">
    <path clip-path="url(#p7daf8a229e)" d="M 192.020389 307.584 
L 192.86315 307.584 
L 192.86315 307.584 
L 192.020389 307.584 
z
" style="fill:#1f77b4;"/>
   </g>
   <g id="patch_131">
    <path clip-path="url(#p7daf8a229e)" d="M 193.073841 307.584 
L 193.916602 307.584 
L 193.916602 307.584 
L 193.073841 307.584 
z
" style="fill:#1f77b4;"/>
   </g>
   <g id="patch_132">
    <path clip-path="url(#p7daf8a229e)" d="M 194.127292 307.584 
L 194.970053 307.584 
L 194.970053 307.507938 
L 194.127292 307.507938 
z
" style="fill:#1f77b4;"/>
   </g>
   <g id="patch_133">
    <path clip-path="url(#p7daf8a229e)" d="M 195.180743 307.584 
L 196.023504 307.584 
L 196.023504 307.507938 
L 195.180743 307.507938 
z
" style="fill:#1f77b4;"/>
   </g>
   <g id="patch_134">
    <path clip-path="url(#p7daf8a229e)" d="M 196.234195 307.584 
L 197.076956 307.584 
L 197.076956 307.584 
L 196.234195 307.584 
z
" style="fill:#1f77b4;"/>
   </g>
   <g id="patch_135">
    <path clip-path="url(#p7daf8a229e)" d="M 197.287646 307.584 
L 198.130407 307.584 
L 198.130407 307.584 
L 197.287646 307.584 
z
" style="fill:#1f77b4;"/>
   </g>
   <g id="patch_136">
    <path clip-path="url(#p7daf8a229e)" d="M 198.341097 307.584 
L 199.183858 307.584 
L 199.183858 307.584 
L 198.341097 307.584 
z
" style="fill:#1f77b4;"/>
   </g>
   <g id="patch_137">
    <path clip-path="url(#p7daf8a229e)" d="M 199.394549 307.584 
L 200.23731 307.584 
L 200.23731 307.584 
L 199.394549 307.584 
z
" style="fill:#1f77b4;"/>
   </g>
   <g id="patch_138">
    <path clip-path="url(#p7daf8a229e)" d="M 200.448 307.584 
L 201.290761 307.584 
L 201.290761 307.507938 
L 200.448 307.507938 
z
" style="fill:#1f77b4;"/>
   </g>
   <g id="patch_139">
    <path clip-path="url(#p7daf8a229e)" d="M 201.501451 307.584 
L 202.344212 307.584 
L 202.344212 307.507938 
L 201.501451 307.507938 
z
" style="fill:#1f77b4;"/>
   </g>
   <g id="patch_140">
    <path clip-path="url(#p7daf8a229e)" d="M 202.554903 307.584 
L 203.397664 307.584 
L 203.397664 307.584 
L 202.554903 307.584 
z
" style="fill:#1f77b4;"/>
   </g>
   <g id="patch_141">
    <path clip-path="url(#p7daf8a229e)" d="M 203.608354 307.584 
L 204.451115 307.584 
L 204.451115 307.584 
L 203.608354 307.584 
z
" style="fill:#1f77b4;"/>
   </g>
   <g id="patch_142">
    <path clip-path="url(#p7daf8a229e)" d="M 204.661805 307.584 
L 205.504566 307.584 
L 205.504566 307.584 
L 204.661805 307.584 
z
" style="fill:#1f77b4;"/>
   </g>
   <g id="patch_143">
    <path clip-path="url(#p7daf8a229e)" d="M 205.715257 307.584 
L 206.558018 307.584 
L 206.558018 307.584 
L 205.715257 307.584 
z
" style="fill:#1f77b4;"/>
   </g>
   <g id="patch_144">
    <path clip-path="url(#p7daf8a229e)" d="M 206.768708 307.584 
L 207.611469 307.584 
L 207.611469 307.584 
L 206.768708 307.584 
z
" style="fill:#1f77b4;"/>
   </g>
   <g id="patch_145">
    <path clip-path="url(#p7daf8a229e)" d="M 207.822159 307.584 
L 208.66492 307.584 
L 208.66492 307.584 
L 207.822159 307.584 
z
" style="fill:#1f77b4;"/>
   </g>
   <g id="patch_146">
    <path clip-path="url(#p7daf8a229e)" d="M 208.875611 307.584 
L 209.718372 307.584 
L 209.718372 307.584 
L 208.875611 307.584 
z
" style="fill:#1f77b4;"/>
   </g>
   <g id="patch_147">
    <path clip-path="url(#p7daf8a229e)" d="M 209.929062 307.584 
L 210.771823 307.584 
L 210.771823 307.584 
L 209.929062 307.584 
z
" style="fill:#1f77b4;"/>
   </g>
   <g id="patch_148">
    <path clip-path="url(#p7daf8a229e)" d="M 210.982513 307.584 
L 211.825274 307.584 
L 211.825274 307.507938 
L 210.982513 307.507938 
z
" style="fill:#1f77b4;"/>
   </g>
   <g id="patch_149">
    <path clip-path="url(#p7daf8a229e)" d="M 212.035965 307.584 
L 212.878726 307.584 
L 212.878726 307.584 
L 212.035965 307.584 
z
" style="fill:#1f77b4;"/>
   </g>
   <g id="patch_150">
    <path clip-path="url(#p7daf8a229e)" d="M 213.089416 307.584 
L 213.932177 307.584 
L 213.932177 307.507938 
L 213.089416 307.507938 
z
" style="fill:#1f77b4;"/>
   </g>
   <g id="patch_151">
    <path clip-path="url(#p7daf8a229e)" d="M 214.142867 307.584 
L 214.985628 307.584 
L 214.985628 307.584 
L 214.142867 307.584 
z
" style="fill:#1f77b4;"/>
   </g>
   <g id="patch_152">
    <path clip-path="url(#p7daf8a229e)" d="M 215.196319 307.584 
L 216.03908 307.584 
L 216.03908 307.584 
L 215.196319 307.584 
z
" style="fill:#1f77b4;"/>
   </g>
   <g id="patch_153">
    <path clip-path="url(#p7daf8a229e)" d="M 216.24977 307.584 
L 217.092531 307.584 
L 217.092531 307.584 
L 216.24977 307.584 
z
" style="fill:#1f77b4;"/>
   </g>
   <g id="patch_154">
    <path clip-path="url(#p7daf8a229e)" d="M 217.303221 307.584 
L 218.145982 307.584 
L 218.145982 307.584 
L 217.303221 307.584 
z
" style="fill:#1f77b4;"/>
   </g>
   <g id="patch_155">
    <path clip-path="url(#p7daf8a229e)" d="M 218.356673 307.584 
L 219.199434 307.584 
L 219.199434 307.584 
L 218.356673 307.584 
z
" style="fill:#1f77b4;"/>
   </g>
   <g id="patch_156">
    <path clip-path="url(#p7daf8a229e)" d="M 219.410124 307.584 
L 220.252885 307.584 
L 220.252885 307.584 
L 219.410124 307.584 
z
" style="fill:#1f77b4;"/>
   </g>
   <g id="patch_157">
    <path clip-path="url(#p7daf8a229e)" d="M 220.463575 307.584 
L 221.306336 307.584 
L 221.306336 307.584 
L 220.463575 307.584 
z
" style="fill:#1f77b4;"/>
   </g>
   <g id="patch_158">
    <path clip-path="url(#p7daf8a229e)" d="M 221.517027 307.584 
L 222.359788 307.584 
L 222.359788 307.584 
L 221.517027 307.584 
z
" style="fill:#1f77b4;"/>
   </g>
   <g id="patch_159">
    <path clip-path="url(#p7daf8a229e)" d="M 222.570478 307.584 
L 223.413239 307.584 
L 223.413239 307.584 
L 222.570478 307.584 
z
" style="fill:#1f77b4;"/>
   </g>
   <g id="patch_160">
    <path clip-path="url(#p7daf8a229e)" d="M 223.623929 307.584 
L 224.46669 307.584 
L 224.46669 307.584 
L 223.623929 307.584 
z
" style="fill:#1f77b4;"/>
   </g>
   <g id="patch_161">
    <path clip-path="url(#p7daf8a229e)" d="M 224.677381 307.584 
L 225.520142 307.584 
L 225.520142 307.584 
L 224.677381 307.584 
z
" style="fill:#1f77b4;"/>
   </g>
   <g id="patch_162">
    <path clip-path="url(#p7daf8a229e)" d="M 225.730832 307.584 
L 226.573593 307.584 
L 226.573593 307.584 
L 225.730832 307.584 
z
" style="fill:#1f77b4;"/>
   </g>
   <g id="patch_163">
    <path clip-path="url(#p7daf8a229e)" d="M 226.784283 307.584 
L 227.627044 307.584 
L 227.627044 307.507938 
L 226.784283 307.507938 
z
" style="fill:#1f77b4;"/>
   </g>
   <g id="patch_164">
    <path clip-path="url(#p7daf8a229e)" d="M 227.837735 307.584 
L 228.680496 307.584 
L 228.680496 307.584 
L 227.837735 307.584 
z
" style="fill:#1f77b4;"/>
   </g>
   <g id="patch_165">
    <path clip-path="url(#p7daf8a229e)" d="M 228.891186 307.584 
L 229.733947 307.584 
L 229.733947 307.584 
L 228.891186 307.584 
z
" style="fill:#1f77b4;"/>
   </g>
   <g id="patch_166">
    <path clip-path="url(#p7daf8a229e)" d="M 229.944637 307.584 
L 230.787398 307.584 
L 230.787398 307.584 
L 229.944637 307.584 
z
" style="fill:#1f77b4;"/>
   </g>
   <g id="patch_167">
    <path clip-path="url(#p7daf8a229e)" d="M 230.998088 307.584 
L 231.84085 307.584 
L 231.84085 307.584 
L 230.998088 307.584 
z
" style="fill:#1f77b4;"/>
   </g>
   <g id="patch_168">
    <path clip-path="url(#p7daf8a229e)" d="M 232.05154 307.584 
L 232.894301 307.584 
L 232.894301 307.584 
L 232.05154 307.584 
z
" style="fill:#1f77b4;"/>
   </g>
   <g id="patch_169">
    <path clip-path="url(#p7daf8a229e)" d="M 233.104991 307.584 
L 233.947752 307.584 
L 233.947752 307.584 
L 233.104991 307.584 
z
" style="fill:#1f77b4;"/>
   </g>
   <g id="patch_170">
    <path clip-path="url(#p7daf8a229e)" d="M 234.158442 307.584 
L 235.001204 307.584 
L 235.001204 307.584 
L 234.158442 307.584 
z
" style="fill:#1f77b4;"/>
   </g>
   <g id="patch_171">
    <path clip-path="url(#p7daf8a229e)" d="M 235.211894 307.584 
L 236.054655 307.584 
L 236.054655 307.584 
L 235.211894 307.584 
z
" style="fill:#1f77b4;"/>
   </g>
   <g id="patch_172">
    <path clip-path="url(#p7daf8a229e)" d="M 236.265345 307.584 
L 237.108106 307.584 
L 237.108106 307.584 
L 236.265345 307.584 
z
" style="fill:#1f77b4;"/>
   </g>
   <g id="patch_173">
    <path clip-path="url(#p7daf8a229e)" d="M 237.318796 307.584 
L 238.161558 307.584 
L 238.161558 307.507938 
L 237.318796 307.507938 
z
" style="fill:#1f77b4;"/>
   </g>
   <g id="patch_174">
    <path clip-path="url(#p7daf8a229e)" d="M 238.372248 307.584 
L 239.215009 307.584 
L 239.215009 307.584 
L 238.372248 307.584 
z
" style="fill:#1f77b4;"/>
   </g>
   <g id="patch_175">
    <path clip-path="url(#p7daf8a229e)" d="M 239.425699 307.584 
L 240.26846 307.584 
L 240.26846 307.507938 
L 239.425699 307.507938 
z
" style="fill:#1f77b4;"/>
   </g>
   <g id="patch_176">
    <path clip-path="url(#p7daf8a229e)" d="M 240.47915 307.584 
L 241.321912 307.584 
L 241.321912 307.507938 
L 240.47915 307.507938 
z
" style="fill:#1f77b4;"/>
   </g>
   <g id="patch_177">
    <path clip-path="url(#p7daf8a229e)" d="M 241.532602 307.584 
L 242.375363 307.584 
L 242.375363 307.584 
L 241.532602 307.584 
z
" style="fill:#1f77b4;"/>
   </g>
   <g id="patch_178">
    <path clip-path="url(#p7daf8a229e)" d="M 242.586053 307.584 
L 243.428814 307.584 
L 243.428814 307.584 
L 242.586053 307.584 
z
" style="fill:#1f77b4;"/>
   </g>
   <g id="patch_179">
    <path clip-path="url(#p7daf8a229e)" d="M 243.639504 307.584 
L 244.482265 307.584 
L 244.482265 307.584 
L 243.639504 307.584 
z
" style="fill:#1f77b4;"/>
   </g>
   <g id="patch_180">
    <path clip-path="url(#p7daf8a229e)" d="M 244.692956 307.584 
L 245.535717 307.584 
L 245.535717 307.584 
L 244.692956 307.584 
z
" style="fill:#1f77b4;"/>
   </g>
   <g id="patch_181">
    <path clip-path="url(#p7daf8a229e)" d="M 245.746407 307.584 
L 246.589168 307.584 
L 246.589168 307.584 
L 245.746407 307.584 
z
" style="fill:#1f77b4;"/>
   </g>
   <g id="patch_182">
    <path clip-path="url(#p7daf8a229e)" d="M 246.799858 307.584 
L 247.642619 307.584 
L 247.642619 307.507938 
L 246.799858 307.507938 
z
" style="fill:#1f77b4;"/>
   </g>
   <g id="patch_183">
    <path clip-path="url(#p7daf8a229e)" d="M 247.85331 307.584 
L 248.696071 307.584 
L 248.696071 307.584 
L 247.85331 307.584 
z
" style="fill:#1f77b4;"/>
   </g>
   <g id="patch_184">
    <path clip-path="url(#p7daf8a229e)" d="M 248.906761 307.584 
L 249.749522 307.584 
L 249.749522 307.584 
L 248.906761 307.584 
z
" style="fill:#1f77b4;"/>
   </g>
   <g id="patch_185">
    <path clip-path="url(#p7daf8a229e)" d="M 249.960212 307.584 
L 250.802973 307.584 
L 250.802973 307.584 
L 249.960212 307.584 
z
" style="fill:#1f77b4;"/>
   </g>
   <g id="patch_186">
    <path clip-path="url(#p7daf8a229e)" d="M 251.013664 307.584 
L 251.856425 307.584 
L 251.856425 307.584 
L 251.013664 307.584 
z
" style="fill:#1f77b4;"/>
   </g>
   <g id="patch_187">
    <path clip-path="url(#p7daf8a229e)" d="M 252.067115 307.584 
L 252.909876 307.584 
L 252.909876 307.584 
L 252.067115 307.584 
z
" style="fill:#1f77b4;"/>
   </g>
   <g id="patch_188">
    <path clip-path="url(#p7daf8a229e)" d="M 253.120566 307.584 
L 253.963327 307.584 
L 253.963327 307.584 
L 253.120566 307.584 
z
" style="fill:#1f77b4;"/>
   </g>
   <g id="patch_189">
    <path clip-path="url(#p7daf8a229e)" d="M 254.174018 307.584 
L 255.016779 307.584 
L 255.016779 307.584 
L 254.174018 307.584 
z
" style="fill:#1f77b4;"/>
   </g>
   <g id="patch_190">
    <path clip-path="url(#p7daf8a229e)" d="M 255.227469 307.584 
L 256.07023 307.584 
L 256.07023 307.584 
L 255.227469 307.584 
z
" style="fill:#1f77b4;"/>
   </g>
   <g id="patch_191">
    <path clip-path="url(#p7daf8a229e)" d="M 256.28092 307.584 
L 257.123681 307.584 
L 257.123681 307.584 
L 256.28092 307.584 
z
" style="fill:#1f77b4;"/>
   </g>
   <g id="patch_192">
    <path clip-path="url(#p7daf8a229e)" d="M 257.334372 307.584 
L 258.177133 307.584 
L 258.177133 307.507938 
L 257.334372 307.507938 
z
" style="fill:#1f77b4;"/>
   </g>
   <g id="patch_193">
    <path clip-path="url(#p7daf8a229e)" d="M 258.387823 307.584 
L 259.230584 307.584 
L 259.230584 307.584 
L 258.387823 307.584 
z
" style="fill:#1f77b4;"/>
   </g>
   <g id="patch_194">
    <path clip-path="url(#p7daf8a229e)" d="M 259.441274 307.584 
L 260.284035 307.584 
L 260.284035 307.584 
L 259.441274 307.584 
z
" style="fill:#1f77b4;"/>
   </g>
   <g id="patch_195">
    <path clip-path="url(#p7daf8a229e)" d="M 260.494726 307.584 
L 261.337487 307.584 
L 261.337487 307.584 
L 260.494726 307.584 
z
" style="fill:#1f77b4;"/>
   </g>
   <g id="patch_196">
    <path clip-path="url(#p7daf8a229e)" d="M 261.548177 307.584 
L 262.390938 307.584 
L 262.390938 307.584 
L 261.548177 307.584 
z
" style="fill:#1f77b4;"/>
   </g>
   <g id="patch_197">
    <path clip-path="url(#p7daf8a229e)" d="M 262.601628 307.584 
L 263.444389 307.584 
L 263.444389 307.584 
L 262.601628 307.584 
z
" style="fill:#1f77b4;"/>
   </g>
   <g id="patch_198">
    <path clip-path="url(#p7daf8a229e)" d="M 263.65508 307.584 
L 264.497841 307.584 
L 264.497841 307.584 
L 263.65508 307.584 
z
" style="fill:#1f77b4;"/>
   </g>
   <g id="patch_199">
    <path clip-path="url(#p7daf8a229e)" d="M 264.708531 307.584 
L 265.551292 307.584 
L 265.551292 307.584 
L 264.708531 307.584 
z
" style="fill:#1f77b4;"/>
   </g>
   <g id="patch_200">
    <path clip-path="url(#p7daf8a229e)" d="M 265.761982 307.584 
L 266.604743 307.584 
L 266.604743 307.507938 
L 265.761982 307.507938 
z
" style="fill:#1f77b4;"/>
   </g>
   <g id="patch_201">
    <path clip-path="url(#p7daf8a229e)" d="M 266.815434 307.584 
L 267.658195 307.584 
L 267.658195 307.584 
L 266.815434 307.584 
z
" style="fill:#1f77b4;"/>
   </g>
   <g id="patch_202">
    <path clip-path="url(#p7daf8a229e)" d="M 267.868885 307.584 
L 268.711646 307.584 
L 268.711646 307.584 
L 267.868885 307.584 
z
" style="fill:#1f77b4;"/>
   </g>
   <g id="patch_203">
    <path clip-path="url(#p7daf8a229e)" d="M 268.922336 307.584 
L 269.765097 307.584 
L 269.765097 307.584 
L 268.922336 307.584 
z
" style="fill:#1f77b4;"/>
   </g>
   <g id="patch_204">
    <path clip-path="url(#p7daf8a229e)" d="M 269.975788 307.584 
L 270.818549 307.584 
L 270.818549 307.584 
L 269.975788 307.584 
z
" style="fill:#1f77b4;"/>
   </g>
   <g id="patch_205">
    <path clip-path="url(#p7daf8a229e)" d="M 271.029239 307.584 
L 271.872 307.584 
L 271.872 307.584 
L 271.029239 307.584 
z
" style="fill:#1f77b4;"/>
   </g>
   <g id="patch_206">
    <path clip-path="url(#p7daf8a229e)" d="M 272.08269 307.584 
L 272.925451 307.584 
L 272.925451 307.584 
L 272.08269 307.584 
z
" style="fill:#1f77b4;"/>
   </g>
   <g id="patch_207">
    <path clip-path="url(#p7daf8a229e)" d="M 273.136142 307.584 
L 273.978903 307.584 
L 273.978903 307.584 
L 273.136142 307.584 
z
" style="fill:#1f77b4;"/>
   </g>
   <g id="patch_208">
    <path clip-path="url(#p7daf8a229e)" d="M 274.189593 307.584 
L 275.032354 307.584 
L 275.032354 307.584 
L 274.189593 307.584 
z
" style="fill:#1f77b4;"/>
   </g>
   <g id="patch_209">
    <path clip-path="url(#p7daf8a229e)" d="M 275.243044 307.584 
L 276.085805 307.584 
L 276.085805 307.584 
L 275.243044 307.584 
z
" style="fill:#1f77b4;"/>
   </g>
   <g id="patch_210">
    <path clip-path="url(#p7daf8a229e)" d="M 276.296496 307.584 
L 277.139257 307.584 
L 277.139257 307.584 
L 276.296496 307.584 
z
" style="fill:#1f77b4;"/>
   </g>
   <g id="patch_211">
    <path clip-path="url(#p7daf8a229e)" d="M 277.349947 307.584 
L 278.192708 307.584 
L 278.192708 307.584 
L 277.349947 307.584 
z
" style="fill:#1f77b4;"/>
   </g>
   <g id="patch_212">
    <path clip-path="url(#p7daf8a229e)" d="M 278.403398 307.584 
L 279.246159 307.584 
L 279.246159 307.584 
L 278.403398 307.584 
z
" style="fill:#1f77b4;"/>
   </g>
   <g id="patch_213">
    <path clip-path="url(#p7daf8a229e)" d="M 279.45685 307.584 
L 280.299611 307.584 
L 280.299611 307.584 
L 279.45685 307.584 
z
" style="fill:#1f77b4;"/>
   </g>
   <g id="patch_214">
    <path clip-path="url(#p7daf8a229e)" d="M 280.510301 307.584 
L 281.353062 307.584 
L 281.353062 307.507938 
L 280.510301 307.507938 
z
" style="fill:#1f77b4;"/>
   </g>
   <g id="patch_215">
    <path clip-path="url(#p7daf8a229e)" d="M 281.563752 307.584 
L 282.406513 307.584 
L 282.406513 307.584 
L 281.563752 307.584 
z
" style="fill:#1f77b4;"/>
   </g>
   <g id="patch_216">
    <path clip-path="url(#p7daf8a229e)" d="M 282.617204 307.584 
L 283.459965 307.584 
L 283.459965 307.584 
L 282.617204 307.584 
z
" style="fill:#1f77b4;"/>
   </g>
   <g id="patch_217">
    <path clip-path="url(#p7daf8a229e)" d="M 283.670655 307.584 
L 284.513416 307.584 
L 284.513416 307.584 
L 283.670655 307.584 
z
" style="fill:#1f77b4;"/>
   </g>
   <g id="patch_218">
    <path clip-path="url(#p7daf8a229e)" d="M 284.724106 307.584 
L 285.566867 307.584 
L 285.566867 307.584 
L 284.724106 307.584 
z
" style="fill:#1f77b4;"/>
   </g>
   <g id="patch_219">
    <path clip-path="url(#p7daf8a229e)" d="M 285.777558 307.584 
L 286.620319 307.584 
L 286.620319 307.584 
L 285.777558 307.584 
z
" style="fill:#1f77b4;"/>
   </g>
   <g id="patch_220">
    <path clip-path="url(#p7daf8a229e)" d="M 286.831009 307.584 
L 287.67377 307.584 
L 287.67377 307.584 
L 286.831009 307.584 
z
" style="fill:#1f77b4;"/>
   </g>
   <g id="patch_221">
    <path clip-path="url(#p7daf8a229e)" d="M 287.88446 307.584 
L 288.727221 307.584 
L 288.727221 307.507938 
L 287.88446 307.507938 
z
" style="fill:#1f77b4;"/>
   </g>
   <g id="patch_222">
    <path clip-path="url(#p7daf8a229e)" d="M 288.937912 307.584 
L 289.780673 307.584 
L 289.780673 307.584 
L 288.937912 307.584 
z
" style="fill:#1f77b4;"/>
   </g>
   <g id="patch_223">
    <path clip-path="url(#p7daf8a229e)" d="M 289.991363 307.584 
L 290.834124 307.584 
L 290.834124 307.584 
L 289.991363 307.584 
z
" style="fill:#1f77b4;"/>
   </g>
   <g id="patch_224">
    <path clip-path="url(#p7daf8a229e)" d="M 291.044814 307.584 
L 291.887575 307.584 
L 291.887575 307.584 
L 291.044814 307.584 
z
" style="fill:#1f77b4;"/>
   </g>
   <g id="patch_225">
    <path clip-path="url(#p7daf8a229e)" d="M 292.098265 307.584 
L 292.941027 307.584 
L 292.941027 307.584 
L 292.098265 307.584 
z
" style="fill:#1f77b4;"/>
   </g>
   <g id="patch_226">
    <path clip-path="url(#p7daf8a229e)" d="M 293.151717 307.584 
L 293.994478 307.584 
L 293.994478 307.584 
L 293.151717 307.584 
z
" style="fill:#1f77b4;"/>
   </g>
   <g id="patch_227">
    <path clip-path="url(#p7daf8a229e)" d="M 294.205168 307.584 
L 295.047929 307.584 
L 295.047929 307.584 
L 294.205168 307.584 
z
" style="fill:#1f77b4;"/>
   </g>
   <g id="patch_228">
    <path clip-path="url(#p7daf8a229e)" d="M 295.258619 307.584 
L 296.101381 307.584 
L 296.101381 307.584 
L 295.258619 307.584 
z
" style="fill:#1f77b4;"/>
   </g>
   <g id="patch_229">
    <path clip-path="url(#p7daf8a229e)" d="M 296.312071 307.584 
L 297.154832 307.584 
L 297.154832 307.584 
L 296.312071 307.584 
z
" style="fill:#1f77b4;"/>
   </g>
   <g id="patch_230">
    <path clip-path="url(#p7daf8a229e)" d="M 297.365522 307.584 
L 298.208283 307.584 
L 298.208283 307.584 
L 297.365522 307.584 
z
" style="fill:#1f77b4;"/>
   </g>
   <g id="patch_231">
    <path clip-path="url(#p7daf8a229e)" d="M 298.418973 307.584 
L 299.261735 307.584 
L 299.261735 307.584 
L 298.418973 307.584 
z
" style="fill:#1f77b4;"/>
   </g>
   <g id="patch_232">
    <path clip-path="url(#p7daf8a229e)" d="M 299.472425 307.584 
L 300.315186 307.584 
L 300.315186 307.584 
L 299.472425 307.584 
z
" style="fill:#1f77b4;"/>
   </g>
   <g id="patch_233">
    <path clip-path="url(#p7daf8a229e)" d="M 300.525876 307.584 
L 301.368637 307.584 
L 301.368637 307.584 
L 300.525876 307.584 
z
" style="fill:#1f77b4;"/>
   </g>
   <g id="patch_234">
    <path clip-path="url(#p7daf8a229e)" d="M 301.579327 307.584 
L 302.422088 307.584 
L 302.422088 307.584 
L 301.579327 307.584 
z
" style="fill:#1f77b4;"/>
   </g>
   <g id="patch_235">
    <path clip-path="url(#p7daf8a229e)" d="M 302.632779 307.584 
L 303.47554 307.584 
L 303.47554 307.584 
L 302.632779 307.584 
z
" style="fill:#1f77b4;"/>
   </g>
   <g id="patch_236">
    <path clip-path="url(#p7daf8a229e)" d="M 303.68623 307.584 
L 304.528991 307.584 
L 304.528991 307.584 
L 303.68623 307.584 
z
" style="fill:#1f77b4;"/>
   </g>
   <g id="patch_237">
    <path clip-path="url(#p7daf8a229e)" d="M 304.739681 307.584 
L 305.582442 307.584 
L 305.582442 307.584 
L 304.739681 307.584 
z
" style="fill:#1f77b4;"/>
   </g>
   <g id="patch_238">
    <path clip-path="url(#p7daf8a229e)" d="M 305.793133 307.584 
L 306.635894 307.584 
L 306.635894 307.584 
L 305.793133 307.584 
z
" style="fill:#1f77b4;"/>
   </g>
   <g id="patch_239">
    <path clip-path="url(#p7daf8a229e)" d="M 306.846584 307.584 
L 307.689345 307.584 
L 307.689345 307.584 
L 306.846584 307.584 
z
" style="fill:#1f77b4;"/>
   </g>
   <g id="patch_240">
    <path clip-path="url(#p7daf8a229e)" d="M 307.900035 307.584 
L 308.742796 307.584 
L 308.742796 307.584 
L 307.900035 307.584 
z
" style="fill:#1f77b4;"/>
   </g>
   <g id="patch_241">
    <path clip-path="url(#p7daf8a229e)" d="M 308.953487 307.584 
L 309.796248 307.584 
L 309.796248 307.584 
L 308.953487 307.584 
z
" style="fill:#1f77b4;"/>
   </g>
   <g id="patch_242">
    <path clip-path="url(#p7daf8a229e)" d="M 310.006938 307.584 
L 310.849699 307.584 
L 310.849699 307.584 
L 310.006938 307.584 
z
" style="fill:#1f77b4;"/>
   </g>
   <g id="patch_243">
    <path clip-path="url(#p7daf8a229e)" d="M 311.060389 307.584 
L 311.90315 307.584 
L 311.90315 307.584 
L 311.060389 307.584 
z
" style="fill:#1f77b4;"/>
   </g>
   <g id="patch_244">
    <path clip-path="url(#p7daf8a229e)" d="M 312.113841 307.584 
L 312.956602 307.584 
L 312.956602 307.584 
L 312.113841 307.584 
z
" style="fill:#1f77b4;"/>
   </g>
   <g id="patch_245">
    <path clip-path="url(#p7daf8a229e)" d="M 313.167292 307.584 
L 314.010053 307.584 
L 314.010053 307.584 
L 313.167292 307.584 
z
" style="fill:#1f77b4;"/>
   </g>
   <g id="patch_246">
    <path clip-path="url(#p7daf8a229e)" d="M 314.220743 307.584 
L 315.063504 307.584 
L 315.063504 307.584 
L 314.220743 307.584 
z
" style="fill:#1f77b4;"/>
   </g>
   <g id="patch_247">
    <path clip-path="url(#p7daf8a229e)" d="M 315.274195 307.584 
L 316.116956 307.584 
L 316.116956 307.584 
L 315.274195 307.584 
z
" style="fill:#1f77b4;"/>
   </g>
   <g id="patch_248">
    <path clip-path="url(#p7daf8a229e)" d="M 316.327646 307.584 
L 317.170407 307.584 
L 317.170407 307.584 
L 316.327646 307.584 
z
" style="fill:#1f77b4;"/>
   </g>
   <g id="patch_249">
    <path clip-path="url(#p7daf8a229e)" d="M 317.381097 307.584 
L 318.223858 307.584 
L 318.223858 307.584 
L 317.381097 307.584 
z
" style="fill:#1f77b4;"/>
   </g>
   <g id="patch_250">
    <path clip-path="url(#p7daf8a229e)" d="M 318.434549 307.584 
L 319.27731 307.584 
L 319.27731 307.584 
L 318.434549 307.584 
z
" style="fill:#1f77b4;"/>
   </g>
   <g id="patch_251">
    <path clip-path="url(#p7daf8a229e)" d="M 319.488 307.584 
L 320.330761 307.584 
L 320.330761 307.584 
L 319.488 307.584 
z
" style="fill:#1f77b4;"/>
   </g>
   <g id="patch_252">
    <path clip-path="url(#p7daf8a229e)" d="M 320.541451 307.584 
L 321.384212 307.584 
L 321.384212 307.584 
L 320.541451 307.584 
z
" style="fill:#1f77b4;"/>
   </g>
   <g id="patch_253">
    <path clip-path="url(#p7daf8a229e)" d="M 321.594903 307.584 
L 322.437664 307.584 
L 322.437664 307.584 
L 321.594903 307.584 
z
" style="fill:#1f77b4;"/>
   </g>
   <g id="patch_254">
    <path clip-path="url(#p7daf8a229e)" d="M 322.648354 307.584 
L 323.491115 307.584 
L 323.491115 307.584 
L 322.648354 307.584 
z
" style="fill:#1f77b4;"/>
   </g>
   <g id="patch_255">
    <path clip-path="url(#p7daf8a229e)" d="M 323.701805 307.584 
L 324.544566 307.584 
L 324.544566 307.584 
L 323.701805 307.584 
z
" style="fill:#1f77b4;"/>
   </g>
   <g id="patch_256">
    <path clip-path="url(#p7daf8a229e)" d="M 324.755257 307.584 
L 325.598018 307.584 
L 325.598018 307.584 
L 324.755257 307.584 
z
" style="fill:#1f77b4;"/>
   </g>
   <g id="patch_257">
    <path clip-path="url(#p7daf8a229e)" d="M 325.808708 307.584 
L 326.651469 307.584 
L 326.651469 307.584 
L 325.808708 307.584 
z
" style="fill:#1f77b4;"/>
   </g>
   <g id="patch_258">
    <path clip-path="url(#p7daf8a229e)" d="M 326.862159 307.584 
L 327.70492 307.584 
L 327.70492 307.584 
L 326.862159 307.584 
z
" style="fill:#1f77b4;"/>
   </g>
   <g id="patch_259">
    <path clip-path="url(#p7daf8a229e)" d="M 327.915611 307.584 
L 328.758372 307.584 
L 328.758372 307.584 
L 327.915611 307.584 
z
" style="fill:#1f77b4;"/>
   </g>
   <g id="patch_260">
    <path clip-path="url(#p7daf8a229e)" d="M 328.969062 307.584 
L 329.811823 307.584 
L 329.811823 307.584 
L 328.969062 307.584 
z
" style="fill:#1f77b4;"/>
   </g>
   <g id="patch_261">
    <path clip-path="url(#p7daf8a229e)" d="M 330.022513 307.584 
L 330.865274 307.584 
L 330.865274 307.584 
L 330.022513 307.584 
z
" style="fill:#1f77b4;"/>
   </g>
   <g id="patch_262">
    <path clip-path="url(#p7daf8a229e)" d="M 331.075965 307.584 
L 331.918726 307.584 
L 331.918726 307.584 
L 331.075965 307.584 
z
" style="fill:#1f77b4;"/>
   </g>
   <g id="patch_263">
    <path clip-path="url(#p7daf8a229e)" d="M 332.129416 307.584 
L 332.972177 307.584 
L 332.972177 307.584 
L 332.129416 307.584 
z
" style="fill:#1f77b4;"/>
   </g>
   <g id="patch_264">
    <path clip-path="url(#p7daf8a229e)" d="M 333.182867 307.584 
L 334.025628 307.584 
L 334.025628 307.584 
L 333.182867 307.584 
z
" style="fill:#1f77b4;"/>
   </g>
   <g id="patch_265">
    <path clip-path="url(#p7daf8a229e)" d="M 334.236319 307.584 
L 335.07908 307.584 
L 335.07908 307.584 
L 334.236319 307.584 
z
" style="fill:#1f77b4;"/>
   </g>
   <g id="patch_266">
    <path clip-path="url(#p7daf8a229e)" d="M 335.28977 307.584 
L 336.132531 307.584 
L 336.132531 307.584 
L 335.28977 307.584 
z
" style="fill:#1f77b4;"/>
   </g>
   <g id="patch_267">
    <path clip-path="url(#p7daf8a229e)" d="M 336.343221 307.584 
L 337.185982 307.584 
L 337.185982 307.584 
L 336.343221 307.584 
z
" style="fill:#1f77b4;"/>
   </g>
   <g id="patch_268">
    <path clip-path="url(#p7daf8a229e)" d="M 337.396673 307.584 
L 338.239434 307.584 
L 338.239434 307.584 
L 337.396673 307.584 
z
" style="fill:#1f77b4;"/>
   </g>
   <g id="patch_269">
    <path clip-path="url(#p7daf8a229e)" d="M 338.450124 307.584 
L 339.292885 307.584 
L 339.292885 307.584 
L 338.450124 307.584 
z
" style="fill:#1f77b4;"/>
   </g>
   <g id="patch_270">
    <path clip-path="url(#p7daf8a229e)" d="M 339.503575 307.584 
L 340.346336 307.584 
L 340.346336 307.584 
L 339.503575 307.584 
z
" style="fill:#1f77b4;"/>
   </g>
   <g id="patch_271">
    <path clip-path="url(#p7daf8a229e)" d="M 340.557027 307.584 
L 341.399788 307.584 
L 341.399788 307.584 
L 340.557027 307.584 
z
" style="fill:#1f77b4;"/>
   </g>
   <g id="patch_272">
    <path clip-path="url(#p7daf8a229e)" d="M 341.610478 307.584 
L 342.453239 307.584 
L 342.453239 307.584 
L 341.610478 307.584 
z
" style="fill:#1f77b4;"/>
   </g>
   <g id="patch_273">
    <path clip-path="url(#p7daf8a229e)" d="M 342.663929 307.584 
L 343.50669 307.584 
L 343.50669 307.584 
L 342.663929 307.584 
z
" style="fill:#1f77b4;"/>
   </g>
   <g id="patch_274">
    <path clip-path="url(#p7daf8a229e)" d="M 343.717381 307.584 
L 344.560142 307.584 
L 344.560142 307.584 
L 343.717381 307.584 
z
" style="fill:#1f77b4;"/>
   </g>
   <g id="patch_275">
    <path clip-path="url(#p7daf8a229e)" d="M 344.770832 307.584 
L 345.613593 307.584 
L 345.613593 307.584 
L 344.770832 307.584 
z
" style="fill:#1f77b4;"/>
   </g>
   <g id="patch_276">
    <path clip-path="url(#p7daf8a229e)" d="M 345.824283 307.584 
L 346.667044 307.584 
L 346.667044 307.584 
L 345.824283 307.584 
z
" style="fill:#1f77b4;"/>
   </g>
   <g id="patch_277">
    <path clip-path="url(#p7daf8a229e)" d="M 346.877735 307.584 
L 347.720496 307.584 
L 347.720496 307.584 
L 346.877735 307.584 
z
" style="fill:#1f77b4;"/>
   </g>
   <g id="patch_278">
    <path clip-path="url(#p7daf8a229e)" d="M 347.931186 307.584 
L 348.773947 307.584 
L 348.773947 307.584 
L 347.931186 307.584 
z
" style="fill:#1f77b4;"/>
   </g>
   <g id="patch_279">
    <path clip-path="url(#p7daf8a229e)" d="M 348.984637 307.584 
L 349.827398 307.584 
L 349.827398 307.584 
L 348.984637 307.584 
z
" style="fill:#1f77b4;"/>
   </g>
   <g id="patch_280">
    <path clip-path="url(#p7daf8a229e)" d="M 350.038088 307.584 
L 350.88085 307.584 
L 350.88085 307.584 
L 350.038088 307.584 
z
" style="fill:#1f77b4;"/>
   </g>
   <g id="patch_281">
    <path clip-path="url(#p7daf8a229e)" d="M 351.09154 307.584 
L 351.934301 307.584 
L 351.934301 307.507938 
L 351.09154 307.507938 
z
" style="fill:#1f77b4;"/>
   </g>
   <g id="patch_282">
    <path clip-path="url(#p7daf8a229e)" d="M 352.144991 307.584 
L 352.987752 307.584 
L 352.987752 307.584 
L 352.144991 307.584 
z
" style="fill:#1f77b4;"/>
   </g>
   <g id="patch_283">
    <path clip-path="url(#p7daf8a229e)" d="M 353.198442 307.584 
L 354.041204 307.584 
L 354.041204 307.584 
L 353.198442 307.584 
z
" style="fill:#1f77b4;"/>
   </g>
   <g id="patch_284">
    <path clip-path="url(#p7daf8a229e)" d="M 354.251894 307.584 
L 355.094655 307.584 
L 355.094655 307.584 
L 354.251894 307.584 
z
" style="fill:#1f77b4;"/>
   </g>
   <g id="patch_285">
    <path clip-path="url(#p7daf8a229e)" d="M 355.305345 307.584 
L 356.148106 307.584 
L 356.148106 307.584 
L 355.305345 307.584 
z
" style="fill:#1f77b4;"/>
   </g>
   <g id="patch_286">
    <path clip-path="url(#p7daf8a229e)" d="M 356.358796 307.584 
L 357.201558 307.584 
L 357.201558 307.584 
L 356.358796 307.584 
z
" style="fill:#1f77b4;"/>
   </g>
   <g id="patch_287">
    <path clip-path="url(#p7daf8a229e)" d="M 357.412248 307.584 
L 358.255009 307.584 
L 358.255009 307.584 
L 357.412248 307.584 
z
" style="fill:#1f77b4;"/>
   </g>
   <g id="patch_288">
    <path clip-path="url(#p7daf8a229e)" d="M 358.465699 307.584 
L 359.30846 307.584 
L 359.30846 307.584 
L 358.465699 307.584 
z
" style="fill:#1f77b4;"/>
   </g>
   <g id="patch_289">
    <path clip-path="url(#p7daf8a229e)" d="M 359.51915 307.584 
L 360.361912 307.584 
L 360.361912 307.584 
L 359.51915 307.584 
z
" style="fill:#1f77b4;"/>
   </g>
   <g id="patch_290">
    <path clip-path="url(#p7daf8a229e)" d="M 360.572602 307.584 
L 361.415363 307.584 
L 361.415363 307.584 
L 360.572602 307.584 
z
" style="fill:#1f77b4;"/>
   </g>
   <g id="patch_291">
    <path clip-path="url(#p7daf8a229e)" d="M 361.626053 307.584 
L 362.468814 307.584 
L 362.468814 307.584 
L 361.626053 307.584 
z
" style="fill:#1f77b4;"/>
   </g>
   <g id="patch_292">
    <path clip-path="url(#p7daf8a229e)" d="M 362.679504 307.584 
L 363.522265 307.584 
L 363.522265 307.584 
L 362.679504 307.584 
z
" style="fill:#1f77b4;"/>
   </g>
   <g id="patch_293">
    <path clip-path="url(#p7daf8a229e)" d="M 363.732956 307.584 
L 364.575717 307.584 
L 364.575717 307.584 
L 363.732956 307.584 
z
" style="fill:#1f77b4;"/>
   </g>
   <g id="patch_294">
    <path clip-path="url(#p7daf8a229e)" d="M 364.786407 307.584 
L 365.629168 307.584 
L 365.629168 307.584 
L 364.786407 307.584 
z
" style="fill:#1f77b4;"/>
   </g>
   <g id="patch_295">
    <path clip-path="url(#p7daf8a229e)" d="M 365.839858 307.584 
L 366.682619 307.584 
L 366.682619 307.584 
L 365.839858 307.584 
z
" style="fill:#1f77b4;"/>
   </g>
   <g id="patch_296">
    <path clip-path="url(#p7daf8a229e)" d="M 366.89331 307.584 
L 367.736071 307.584 
L 367.736071 307.584 
L 366.89331 307.584 
z
" style="fill:#1f77b4;"/>
   </g>
   <g id="patch_297">
    <path clip-path="url(#p7daf8a229e)" d="M 367.946761 307.584 
L 368.789522 307.584 
L 368.789522 307.584 
L 367.946761 307.584 
z
" style="fill:#1f77b4;"/>
   </g>
   <g id="patch_298">
    <path clip-path="url(#p7daf8a229e)" d="M 369.000212 307.584 
L 369.842973 307.584 
L 369.842973 307.584 
L 369.000212 307.584 
z
" style="fill:#1f77b4;"/>
   </g>
   <g id="patch_299">
    <path clip-path="url(#p7daf8a229e)" d="M 370.053664 307.584 
L 370.896425 307.584 
L 370.896425 307.584 
L 370.053664 307.584 
z
" style="fill:#1f77b4;"/>
   </g>
   <g id="patch_300">
    <path clip-path="url(#p7daf8a229e)" d="M 371.107115 307.584 
L 371.949876 307.584 
L 371.949876 307.584 
L 371.107115 307.584 
z
" style="fill:#1f77b4;"/>
   </g>
   <g id="patch_301">
    <path clip-path="url(#p7daf8a229e)" d="M 372.160566 307.584 
L 373.003327 307.584 
L 373.003327 307.584 
L 372.160566 307.584 
z
" style="fill:#1f77b4;"/>
   </g>
   <g id="patch_302">
    <path clip-path="url(#p7daf8a229e)" d="M 373.214018 307.584 
L 374.056779 307.584 
L 374.056779 307.584 
L 373.214018 307.584 
z
" style="fill:#1f77b4;"/>
   </g>
   <g id="patch_303">
    <path clip-path="url(#p7daf8a229e)" d="M 374.267469 307.584 
L 375.11023 307.584 
L 375.11023 307.584 
L 374.267469 307.584 
z
" style="fill:#1f77b4;"/>
   </g>
   <g id="patch_304">
    <path clip-path="url(#p7daf8a229e)" d="M 375.32092 307.584 
L 376.163681 307.584 
L 376.163681 307.584 
L 375.32092 307.584 
z
" style="fill:#1f77b4;"/>
   </g>
   <g id="patch_305">
    <path clip-path="url(#p7daf8a229e)" d="M 376.374372 307.584 
L 377.217133 307.584 
L 377.217133 307.584 
L 376.374372 307.584 
z
" style="fill:#1f77b4;"/>
   </g>
   <g id="patch_306">
    <path clip-path="url(#p7daf8a229e)" d="M 377.427823 307.584 
L 378.270584 307.584 
L 378.270584 307.584 
L 377.427823 307.584 
z
" style="fill:#1f77b4;"/>
   </g>
   <g id="patch_307">
    <path clip-path="url(#p7daf8a229e)" d="M 378.481274 307.584 
L 379.324035 307.584 
L 379.324035 307.584 
L 378.481274 307.584 
z
" style="fill:#1f77b4;"/>
   </g>
   <g id="patch_308">
    <path clip-path="url(#p7daf8a229e)" d="M 379.534726 307.584 
L 380.377487 307.584 
L 380.377487 307.584 
L 379.534726 307.584 
z
" style="fill:#1f77b4;"/>
   </g>
   <g id="patch_309">
    <path clip-path="url(#p7daf8a229e)" d="M 380.588177 307.584 
L 381.430938 307.584 
L 381.430938 307.584 
L 380.588177 307.584 
z
" style="fill:#1f77b4;"/>
   </g>
   <g id="patch_310">
    <path clip-path="url(#p7daf8a229e)" d="M 381.641628 307.584 
L 382.484389 307.584 
L 382.484389 307.584 
L 381.641628 307.584 
z
" style="fill:#1f77b4;"/>
   </g>
   <g id="patch_311">
    <path clip-path="url(#p7daf8a229e)" d="M 382.69508 307.584 
L 383.537841 307.584 
L 383.537841 307.584 
L 382.69508 307.584 
z
" style="fill:#1f77b4;"/>
   </g>
   <g id="patch_312">
    <path clip-path="url(#p7daf8a229e)" d="M 383.748531 307.584 
L 384.591292 307.584 
L 384.591292 307.584 
L 383.748531 307.584 
z
" style="fill:#1f77b4;"/>
   </g>
   <g id="patch_313">
    <path clip-path="url(#p7daf8a229e)" d="M 384.801982 307.584 
L 385.644743 307.584 
L 385.644743 307.584 
L 384.801982 307.584 
z
" style="fill:#1f77b4;"/>
   </g>
   <g id="patch_314">
    <path clip-path="url(#p7daf8a229e)" d="M 385.855434 307.584 
L 386.698195 307.584 
L 386.698195 307.584 
L 385.855434 307.584 
z
" style="fill:#1f77b4;"/>
   </g>
   <g id="patch_315">
    <path clip-path="url(#p7daf8a229e)" d="M 386.908885 307.584 
L 387.751646 307.584 
L 387.751646 307.584 
L 386.908885 307.584 
z
" style="fill:#1f77b4;"/>
   </g>
   <g id="patch_316">
    <path clip-path="url(#p7daf8a229e)" d="M 387.962336 307.584 
L 388.805097 307.584 
L 388.805097 307.584 
L 387.962336 307.584 
z
" style="fill:#1f77b4;"/>
   </g>
   <g id="patch_317">
    <path clip-path="url(#p7daf8a229e)" d="M 389.015788 307.584 
L 389.858549 307.584 
L 389.858549 307.584 
L 389.015788 307.584 
z
" style="fill:#1f77b4;"/>
   </g>
   <g id="patch_318">
    <path clip-path="url(#p7daf8a229e)" d="M 390.069239 307.584 
L 390.912 307.584 
L 390.912 307.584 
L 390.069239 307.584 
z
" style="fill:#1f77b4;"/>
   </g>
   <g id="patch_319">
    <path clip-path="url(#p7daf8a229e)" d="M 391.12269 307.584 
L 391.965451 307.584 
L 391.965451 307.584 
L 391.12269 307.584 
z
" style="fill:#1f77b4;"/>
   </g>
   <g id="patch_320">
    <path clip-path="url(#p7daf8a229e)" d="M 392.176142 307.584 
L 393.018903 307.584 
L 393.018903 307.584 
L 392.176142 307.584 
z
" style="fill:#1f77b4;"/>
   </g>
   <g id="patch_321">
    <path clip-path="url(#p7daf8a229e)" d="M 393.229593 307.584 
L 394.072354 307.584 
L 394.072354 307.584 
L 393.229593 307.584 
z
" style="fill:#1f77b4;"/>
   </g>
   <g id="patch_322">
    <path clip-path="url(#p7daf8a229e)" d="M 394.283044 307.584 
L 395.125805 307.584 
L 395.125805 307.584 
L 394.283044 307.584 
z
" style="fill:#1f77b4;"/>
   </g>
   <g id="patch_323">
    <path clip-path="url(#p7daf8a229e)" d="M 395.336496 307.584 
L 396.179257 307.584 
L 396.179257 307.584 
L 395.336496 307.584 
z
" style="fill:#1f77b4;"/>
   </g>
   <g id="patch_324">
    <path clip-path="url(#p7daf8a229e)" d="M 396.389947 307.584 
L 397.232708 307.584 
L 397.232708 307.584 
L 396.389947 307.584 
z
" style="fill:#1f77b4;"/>
   </g>
   <g id="patch_325">
    <path clip-path="url(#p7daf8a229e)" d="M 397.443398 307.584 
L 398.286159 307.584 
L 398.286159 307.584 
L 397.443398 307.584 
z
" style="fill:#1f77b4;"/>
   </g>
   <g id="patch_326">
    <path clip-path="url(#p7daf8a229e)" d="M 398.49685 307.584 
L 399.339611 307.584 
L 399.339611 307.584 
L 398.49685 307.584 
z
" style="fill:#1f77b4;"/>
   </g>
   <g id="patch_327">
    <path clip-path="url(#p7daf8a229e)" d="M 399.550301 307.584 
L 400.393062 307.584 
L 400.393062 307.584 
L 399.550301 307.584 
z
" style="fill:#1f77b4;"/>
   </g>
   <g id="patch_328">
    <path clip-path="url(#p7daf8a229e)" d="M 400.603752 307.584 
L 401.446513 307.584 
L 401.446513 307.584 
L 400.603752 307.584 
z
" style="fill:#1f77b4;"/>
   </g>
   <g id="patch_329">
    <path clip-path="url(#p7daf8a229e)" d="M 401.657204 307.584 
L 402.499965 307.584 
L 402.499965 307.584 
L 401.657204 307.584 
z
" style="fill:#1f77b4;"/>
   </g>
   <g id="patch_330">
    <path clip-path="url(#p7daf8a229e)" d="M 402.710655 307.584 
L 403.553416 307.584 
L 403.553416 307.584 
L 402.710655 307.584 
z
" style="fill:#1f77b4;"/>
   </g>
   <g id="patch_331">
    <path clip-path="url(#p7daf8a229e)" d="M 403.764106 307.584 
L 404.606867 307.584 
L 404.606867 307.584 
L 403.764106 307.584 
z
" style="fill:#1f77b4;"/>
   </g>
   <g id="patch_332">
    <path clip-path="url(#p7daf8a229e)" d="M 404.817558 307.584 
L 405.660319 307.584 
L 405.660319 307.584 
L 404.817558 307.584 
z
" style="fill:#1f77b4;"/>
   </g>
   <g id="patch_333">
    <path clip-path="url(#p7daf8a229e)" d="M 405.871009 307.584 
L 406.71377 307.584 
L 406.71377 307.584 
L 405.871009 307.584 
z
" style="fill:#1f77b4;"/>
   </g>
   <g id="patch_334">
    <path clip-path="url(#p7daf8a229e)" d="M 406.92446 307.584 
L 407.767221 307.584 
L 407.767221 307.584 
L 406.92446 307.584 
z
" style="fill:#1f77b4;"/>
   </g>
   <g id="patch_335">
    <path clip-path="url(#p7daf8a229e)" d="M 407.977912 307.584 
L 408.820673 307.584 
L 408.820673 307.584 
L 407.977912 307.584 
z
" style="fill:#1f77b4;"/>
   </g>
   <g id="patch_336">
    <path clip-path="url(#p7daf8a229e)" d="M 409.031363 307.584 
L 409.874124 307.584 
L 409.874124 307.584 
L 409.031363 307.584 
z
" style="fill:#1f77b4;"/>
   </g>
   <g id="patch_337">
    <path clip-path="url(#p7daf8a229e)" d="M 410.084814 307.584 
L 410.927575 307.584 
L 410.927575 307.584 
L 410.084814 307.584 
z
" style="fill:#1f77b4;"/>
   </g>
   <g id="patch_338">
    <path clip-path="url(#p7daf8a229e)" d="M 411.138265 307.584 
L 411.981027 307.584 
L 411.981027 307.584 
L 411.138265 307.584 
z
" style="fill:#1f77b4;"/>
   </g>
   <g id="patch_339">
    <path clip-path="url(#p7daf8a229e)" d="M 412.191717 307.584 
L 413.034478 307.584 
L 413.034478 307.584 
L 412.191717 307.584 
z
" style="fill:#1f77b4;"/>
   </g>
   <g id="patch_340">
    <path clip-path="url(#p7daf8a229e)" d="M 413.245168 307.584 
L 414.087929 307.584 
L 414.087929 307.584 
L 413.245168 307.584 
z
" style="fill:#1f77b4;"/>
   </g>
   <g id="patch_341">
    <path clip-path="url(#p7daf8a229e)" d="M 414.298619 307.584 
L 415.141381 307.584 
L 415.141381 307.584 
L 414.298619 307.584 
z
" style="fill:#1f77b4;"/>
   </g>
   <g id="matplotlib.axis_1">
    <g id="xtick_1">
     <g id="line2d_1">
      <defs>
       <path d="M 0 0 
L 0 3.5 
" id="m0cf2f313d7" style="stroke:#000000;stroke-width:0.8;"/>
      </defs>
      <g>
       <use style="stroke:#000000;stroke-width:0.8;" x="57.6" xlink:href="#m0cf2f313d7" y="307.584"/>
      </g>
     </g>
     <g id="text_1">
      <!-- 0 -->
      <g transform="translate(54.41875 322.182437)scale(0.1 -0.1)">
       <defs>
        <path d="M 31.78125 66.40625 
Q 24.171875 66.40625 20.328125 58.90625 
Q 16.5 51.421875 16.5 36.375 
Q 16.5 21.390625 20.328125 13.890625 
Q 24.171875 6.390625 31.78125 6.390625 
Q 39.453125 6.390625 43.28125 13.890625 
Q 47.125 21.390625 47.125 36.375 
Q 47.125 51.421875 43.28125 58.90625 
Q 39.453125 66.40625 31.78125 66.40625 
z
M 31.78125 74.21875 
Q 44.046875 74.21875 50.515625 64.515625 
Q 56.984375 54.828125 56.984375 36.375 
Q 56.984375 17.96875 50.515625 8.265625 
Q 44.046875 -1.421875 31.78125 -1.421875 
Q 19.53125 -1.421875 13.0625 8.265625 
Q 6.59375 17.96875 6.59375 36.375 
Q 6.59375 54.828125 13.0625 64.515625 
Q 19.53125 74.21875 31.78125 74.21875 
z
" id="DejaVuSans-48"/>
       </defs>
       <use xlink:href="#DejaVuSans-48"/>
      </g>
     </g>
    </g>
    <g id="xtick_2">
     <g id="line2d_2">
      <g>
       <use style="stroke:#000000;stroke-width:0.8;" x="110.272566" xlink:href="#m0cf2f313d7" y="307.584"/>
      </g>
     </g>
     <g id="text_2">
      <!-- 50 -->
      <g transform="translate(103.910066 322.182437)scale(0.1 -0.1)">
       <defs>
        <path d="M 10.796875 72.90625 
L 49.515625 72.90625 
L 49.515625 64.59375 
L 19.828125 64.59375 
L 19.828125 46.734375 
Q 21.96875 47.46875 24.109375 47.828125 
Q 26.265625 48.1875 28.421875 48.1875 
Q 40.625 48.1875 47.75 41.5 
Q 54.890625 34.8125 54.890625 23.390625 
Q 54.890625 11.625 47.5625 5.09375 
Q 40.234375 -1.421875 26.90625 -1.421875 
Q 22.3125 -1.421875 17.546875 -0.640625 
Q 12.796875 0.140625 7.71875 1.703125 
L 7.71875 11.625 
Q 12.109375 9.234375 16.796875 8.0625 
Q 21.484375 6.890625 26.703125 6.890625 
Q 35.15625 6.890625 40.078125 11.328125 
Q 45.015625 15.765625 45.015625 23.390625 
Q 45.015625 31 40.078125 35.4375 
Q 35.15625 39.890625 26.703125 39.890625 
Q 22.75 39.890625 18.8125 39.015625 
Q 14.890625 38.140625 10.796875 36.28125 
z
" id="DejaVuSans-53"/>
       </defs>
       <use xlink:href="#DejaVuSans-53"/>
       <use x="63.623047" xlink:href="#DejaVuSans-48"/>
      </g>
     </g>
    </g>
    <g id="xtick_3">
     <g id="line2d_3">
      <g>
       <use style="stroke:#000000;stroke-width:0.8;" x="162.945133" xlink:href="#m0cf2f313d7" y="307.584"/>
      </g>
     </g>
     <g id="text_3">
      <!-- 100 -->
      <g transform="translate(153.401383 322.182437)scale(0.1 -0.1)">
       <defs>
        <path d="M 12.40625 8.296875 
L 28.515625 8.296875 
L 28.515625 63.921875 
L 10.984375 60.40625 
L 10.984375 69.390625 
L 28.421875 72.90625 
L 38.28125 72.90625 
L 38.28125 8.296875 
L 54.390625 8.296875 
L 54.390625 0 
L 12.40625 0 
z
" id="DejaVuSans-49"/>
       </defs>
       <use xlink:href="#DejaVuSans-49"/>
       <use x="63.623047" xlink:href="#DejaVuSans-48"/>
       <use x="127.246094" xlink:href="#DejaVuSans-48"/>
      </g>
     </g>
    </g>
    <g id="xtick_4">
     <g id="line2d_4">
      <g>
       <use style="stroke:#000000;stroke-width:0.8;" x="215.617699" xlink:href="#m0cf2f313d7" y="307.584"/>
      </g>
     </g>
     <g id="text_4">
      <!-- 150 -->
      <g transform="translate(206.073949 322.182437)scale(0.1 -0.1)">
       <use xlink:href="#DejaVuSans-49"/>
       <use x="63.623047" xlink:href="#DejaVuSans-53"/>
       <use x="127.246094" xlink:href="#DejaVuSans-48"/>
      </g>
     </g>
    </g>
    <g id="xtick_5">
     <g id="line2d_5">
      <g>
       <use style="stroke:#000000;stroke-width:0.8;" x="268.290265" xlink:href="#m0cf2f313d7" y="307.584"/>
      </g>
     </g>
     <g id="text_5">
      <!-- 200 -->
      <g transform="translate(258.746515 322.182437)scale(0.1 -0.1)">
       <defs>
        <path d="M 19.1875 8.296875 
L 53.609375 8.296875 
L 53.609375 0 
L 7.328125 0 
L 7.328125 8.296875 
Q 12.9375 14.109375 22.625 23.890625 
Q 32.328125 33.6875 34.8125 36.53125 
Q 39.546875 41.84375 41.421875 45.53125 
Q 43.3125 49.21875 43.3125 52.78125 
Q 43.3125 58.59375 39.234375 62.25 
Q 35.15625 65.921875 28.609375 65.921875 
Q 23.96875 65.921875 18.8125 64.3125 
Q 13.671875 62.703125 7.8125 59.421875 
L 7.8125 69.390625 
Q 13.765625 71.78125 18.9375 73 
Q 24.125 74.21875 28.421875 74.21875 
Q 39.75 74.21875 46.484375 68.546875 
Q 53.21875 62.890625 53.21875 53.421875 
Q 53.21875 48.921875 51.53125 44.890625 
Q 49.859375 40.875 45.40625 35.40625 
Q 44.1875 33.984375 37.640625 27.21875 
Q 31.109375 20.453125 19.1875 8.296875 
z
" id="DejaVuSans-50"/>
       </defs>
       <use xlink:href="#DejaVuSans-50"/>
       <use x="63.623047" xlink:href="#DejaVuSans-48"/>
       <use x="127.246094" xlink:href="#DejaVuSans-48"/>
      </g>
     </g>
    </g>
    <g id="xtick_6">
     <g id="line2d_6">
      <g>
       <use style="stroke:#000000;stroke-width:0.8;" x="320.962832" xlink:href="#m0cf2f313d7" y="307.584"/>
      </g>
     </g>
     <g id="text_6">
      <!-- 250 -->
      <g transform="translate(311.419082 322.182437)scale(0.1 -0.1)">
       <use xlink:href="#DejaVuSans-50"/>
       <use x="63.623047" xlink:href="#DejaVuSans-53"/>
       <use x="127.246094" xlink:href="#DejaVuSans-48"/>
      </g>
     </g>
    </g>
    <g id="xtick_7">
     <g id="line2d_7">
      <g>
       <use style="stroke:#000000;stroke-width:0.8;" x="373.635398" xlink:href="#m0cf2f313d7" y="307.584"/>
      </g>
     </g>
     <g id="text_7">
      <!-- 300 -->
      <g transform="translate(364.091648 322.182437)scale(0.1 -0.1)">
       <defs>
        <path d="M 40.578125 39.3125 
Q 47.65625 37.796875 51.625 33 
Q 55.609375 28.21875 55.609375 21.1875 
Q 55.609375 10.40625 48.1875 4.484375 
Q 40.765625 -1.421875 27.09375 -1.421875 
Q 22.515625 -1.421875 17.65625 -0.515625 
Q 12.796875 0.390625 7.625 2.203125 
L 7.625 11.71875 
Q 11.71875 9.328125 16.59375 8.109375 
Q 21.484375 6.890625 26.8125 6.890625 
Q 36.078125 6.890625 40.9375 10.546875 
Q 45.796875 14.203125 45.796875 21.1875 
Q 45.796875 27.640625 41.28125 31.265625 
Q 36.765625 34.90625 28.71875 34.90625 
L 20.21875 34.90625 
L 20.21875 43.015625 
L 29.109375 43.015625 
Q 36.375 43.015625 40.234375 45.921875 
Q 44.09375 48.828125 44.09375 54.296875 
Q 44.09375 59.90625 40.109375 62.90625 
Q 36.140625 65.921875 28.71875 65.921875 
Q 24.65625 65.921875 20.015625 65.03125 
Q 15.375 64.15625 9.8125 62.3125 
L 9.8125 71.09375 
Q 15.4375 72.65625 20.34375 73.4375 
Q 25.25 74.21875 29.59375 74.21875 
Q 40.828125 74.21875 47.359375 69.109375 
Q 53.90625 64.015625 53.90625 55.328125 
Q 53.90625 49.265625 50.4375 45.09375 
Q 46.96875 40.921875 40.578125 39.3125 
z
" id="DejaVuSans-51"/>
       </defs>
       <use xlink:href="#DejaVuSans-51"/>
       <use x="63.623047" xlink:href="#DejaVuSans-48"/>
       <use x="127.246094" xlink:href="#DejaVuSans-48"/>
      </g>
     </g>
    </g>
    <g id="text_8">
     <!-- # samples a feature is present in -->
     <g transform="translate(152.983437 335.860562)scale(0.1 -0.1)">
      <defs>
       <path d="M 51.125 44 
L 36.921875 44 
L 32.8125 27.6875 
L 47.125 27.6875 
z
M 43.796875 71.78125 
L 38.71875 51.515625 
L 52.984375 51.515625 
L 58.109375 71.78125 
L 65.921875 71.78125 
L 60.890625 51.515625 
L 76.125 51.515625 
L 76.125 44 
L 58.984375 44 
L 54.984375 27.6875 
L 70.515625 27.6875 
L 70.515625 20.21875 
L 53.078125 20.21875 
L 48 0 
L 40.1875 0 
L 45.21875 20.21875 
L 30.90625 20.21875 
L 25.875 0 
L 18.015625 0 
L 23.09375 20.21875 
L 7.71875 20.21875 
L 7.71875 27.6875 
L 24.90625 27.6875 
L 29 44 
L 13.28125 44 
L 13.28125 51.515625 
L 30.90625 51.515625 
L 35.890625 71.78125 
z
" id="DejaVuSans-35"/>
       <path id="DejaVuSans-32"/>
       <path d="M 44.28125 53.078125 
L 44.28125 44.578125 
Q 40.484375 46.53125 36.375 47.5 
Q 32.28125 48.484375 27.875 48.484375 
Q 21.1875 48.484375 17.84375 46.4375 
Q 14.5 44.390625 14.5 40.28125 
Q 14.5 37.15625 16.890625 35.375 
Q 19.28125 33.59375 26.515625 31.984375 
L 29.59375 31.296875 
Q 39.15625 29.25 43.1875 25.515625 
Q 47.21875 21.78125 47.21875 15.09375 
Q 47.21875 7.46875 41.1875 3.015625 
Q 35.15625 -1.421875 24.609375 -1.421875 
Q 20.21875 -1.421875 15.453125 -0.5625 
Q 10.6875 0.296875 5.421875 2 
L 5.421875 11.28125 
Q 10.40625 8.6875 15.234375 7.390625 
Q 20.0625 6.109375 24.8125 6.109375 
Q 31.15625 6.109375 34.5625 8.28125 
Q 37.984375 10.453125 37.984375 14.40625 
Q 37.984375 18.0625 35.515625 20.015625 
Q 33.0625 21.96875 24.703125 23.78125 
L 21.578125 24.515625 
Q 13.234375 26.265625 9.515625 29.90625 
Q 5.8125 33.546875 5.8125 39.890625 
Q 5.8125 47.609375 11.28125 51.796875 
Q 16.75 56 26.8125 56 
Q 31.78125 56 36.171875 55.265625 
Q 40.578125 54.546875 44.28125 53.078125 
z
" id="DejaVuSans-115"/>
       <path d="M 34.28125 27.484375 
Q 23.390625 27.484375 19.1875 25 
Q 14.984375 22.515625 14.984375 16.5 
Q 14.984375 11.71875 18.140625 8.90625 
Q 21.296875 6.109375 26.703125 6.109375 
Q 34.1875 6.109375 38.703125 11.40625 
Q 43.21875 16.703125 43.21875 25.484375 
L 43.21875 27.484375 
z
M 52.203125 31.203125 
L 52.203125 0 
L 43.21875 0 
L 43.21875 8.296875 
Q 40.140625 3.328125 35.546875 0.953125 
Q 30.953125 -1.421875 24.3125 -1.421875 
Q 15.921875 -1.421875 10.953125 3.296875 
Q 6 8.015625 6 15.921875 
Q 6 25.140625 12.171875 29.828125 
Q 18.359375 34.515625 30.609375 34.515625 
L 43.21875 34.515625 
L 43.21875 35.40625 
Q 43.21875 41.609375 39.140625 45 
Q 35.0625 48.390625 27.6875 48.390625 
Q 23 48.390625 18.546875 47.265625 
Q 14.109375 46.140625 10.015625 43.890625 
L 10.015625 52.203125 
Q 14.9375 54.109375 19.578125 55.046875 
Q 24.21875 56 28.609375 56 
Q 40.484375 56 46.34375 49.84375 
Q 52.203125 43.703125 52.203125 31.203125 
z
" id="DejaVuSans-97"/>
       <path d="M 52 44.1875 
Q 55.375 50.25 60.0625 53.125 
Q 64.75 56 71.09375 56 
Q 79.640625 56 84.28125 50.015625 
Q 88.921875 44.046875 88.921875 33.015625 
L 88.921875 0 
L 79.890625 0 
L 79.890625 32.71875 
Q 79.890625 40.578125 77.09375 44.375 
Q 74.3125 48.1875 68.609375 48.1875 
Q 61.625 48.1875 57.5625 43.546875 
Q 53.515625 38.921875 53.515625 30.90625 
L 53.515625 0 
L 44.484375 0 
L 44.484375 32.71875 
Q 44.484375 40.625 41.703125 44.40625 
Q 38.921875 48.1875 33.109375 48.1875 
Q 26.21875 48.1875 22.15625 43.53125 
Q 18.109375 38.875 18.109375 30.90625 
L 18.109375 0 
L 9.078125 0 
L 9.078125 54.6875 
L 18.109375 54.6875 
L 18.109375 46.1875 
Q 21.1875 51.21875 25.484375 53.609375 
Q 29.78125 56 35.6875 56 
Q 41.65625 56 45.828125 52.96875 
Q 50 49.953125 52 44.1875 
z
" id="DejaVuSans-109"/>
       <path d="M 18.109375 8.203125 
L 18.109375 -20.796875 
L 9.078125 -20.796875 
L 9.078125 54.6875 
L 18.109375 54.6875 
L 18.109375 46.390625 
Q 20.953125 51.265625 25.265625 53.625 
Q 29.59375 56 35.59375 56 
Q 45.5625 56 51.78125 48.09375 
Q 58.015625 40.1875 58.015625 27.296875 
Q 58.015625 14.40625 51.78125 6.484375 
Q 45.5625 -1.421875 35.59375 -1.421875 
Q 29.59375 -1.421875 25.265625 0.953125 
Q 20.953125 3.328125 18.109375 8.203125 
z
M 48.6875 27.296875 
Q 48.6875 37.203125 44.609375 42.84375 
Q 40.53125 48.484375 33.40625 48.484375 
Q 26.265625 48.484375 22.1875 42.84375 
Q 18.109375 37.203125 18.109375 27.296875 
Q 18.109375 17.390625 22.1875 11.75 
Q 26.265625 6.109375 33.40625 6.109375 
Q 40.53125 6.109375 44.609375 11.75 
Q 48.6875 17.390625 48.6875 27.296875 
z
" id="DejaVuSans-112"/>
       <path d="M 9.421875 75.984375 
L 18.40625 75.984375 
L 18.40625 0 
L 9.421875 0 
z
" id="DejaVuSans-108"/>
       <path d="M 56.203125 29.59375 
L 56.203125 25.203125 
L 14.890625 25.203125 
Q 15.484375 15.921875 20.484375 11.0625 
Q 25.484375 6.203125 34.421875 6.203125 
Q 39.59375 6.203125 44.453125 7.46875 
Q 49.3125 8.734375 54.109375 11.28125 
L 54.109375 2.78125 
Q 49.265625 0.734375 44.1875 -0.34375 
Q 39.109375 -1.421875 33.890625 -1.421875 
Q 20.796875 -1.421875 13.15625 6.1875 
Q 5.515625 13.8125 5.515625 26.8125 
Q 5.515625 40.234375 12.765625 48.109375 
Q 20.015625 56 32.328125 56 
Q 43.359375 56 49.78125 48.890625 
Q 56.203125 41.796875 56.203125 29.59375 
z
M 47.21875 32.234375 
Q 47.125 39.59375 43.09375 43.984375 
Q 39.0625 48.390625 32.421875 48.390625 
Q 24.90625 48.390625 20.390625 44.140625 
Q 15.875 39.890625 15.1875 32.171875 
z
" id="DejaVuSans-101"/>
       <path d="M 37.109375 75.984375 
L 37.109375 68.5 
L 28.515625 68.5 
Q 23.6875 68.5 21.796875 66.546875 
Q 19.921875 64.59375 19.921875 59.515625 
L 19.921875 54.6875 
L 34.71875 54.6875 
L 34.71875 47.703125 
L 19.921875 47.703125 
L 19.921875 0 
L 10.890625 0 
L 10.890625 47.703125 
L 2.296875 47.703125 
L 2.296875 54.6875 
L 10.890625 54.6875 
L 10.890625 58.5 
Q 10.890625 67.625 15.140625 71.796875 
Q 19.390625 75.984375 28.609375 75.984375 
z
" id="DejaVuSans-102"/>
       <path d="M 18.3125 70.21875 
L 18.3125 54.6875 
L 36.8125 54.6875 
L 36.8125 47.703125 
L 18.3125 47.703125 
L 18.3125 18.015625 
Q 18.3125 11.328125 20.140625 9.421875 
Q 21.96875 7.515625 27.59375 7.515625 
L 36.8125 7.515625 
L 36.8125 0 
L 27.59375 0 
Q 17.1875 0 13.234375 3.875 
Q 9.28125 7.765625 9.28125 18.015625 
L 9.28125 47.703125 
L 2.6875 47.703125 
L 2.6875 54.6875 
L 9.28125 54.6875 
L 9.28125 70.21875 
z
" id="DejaVuSans-116"/>
       <path d="M 8.5 21.578125 
L 8.5 54.6875 
L 17.484375 54.6875 
L 17.484375 21.921875 
Q 17.484375 14.15625 20.5 10.265625 
Q 23.53125 6.390625 29.59375 6.390625 
Q 36.859375 6.390625 41.078125 11.03125 
Q 45.3125 15.671875 45.3125 23.6875 
L 45.3125 54.6875 
L 54.296875 54.6875 
L 54.296875 0 
L 45.3125 0 
L 45.3125 8.40625 
Q 42.046875 3.421875 37.71875 1 
Q 33.40625 -1.421875 27.6875 -1.421875 
Q 18.265625 -1.421875 13.375 4.4375 
Q 8.5 10.296875 8.5 21.578125 
z
M 31.109375 56 
z
" id="DejaVuSans-117"/>
       <path d="M 41.109375 46.296875 
Q 39.59375 47.171875 37.8125 47.578125 
Q 36.03125 48 33.890625 48 
Q 26.265625 48 22.1875 43.046875 
Q 18.109375 38.09375 18.109375 28.8125 
L 18.109375 0 
L 9.078125 0 
L 9.078125 54.6875 
L 18.109375 54.6875 
L 18.109375 46.1875 
Q 20.953125 51.171875 25.484375 53.578125 
Q 30.03125 56 36.53125 56 
Q 37.453125 56 38.578125 55.875 
Q 39.703125 55.765625 41.0625 55.515625 
z
" id="DejaVuSans-114"/>
       <path d="M 9.421875 54.6875 
L 18.40625 54.6875 
L 18.40625 0 
L 9.421875 0 
z
M 9.421875 75.984375 
L 18.40625 75.984375 
L 18.40625 64.59375 
L 9.421875 64.59375 
z
" id="DejaVuSans-105"/>
       <path d="M 54.890625 33.015625 
L 54.890625 0 
L 45.90625 0 
L 45.90625 32.71875 
Q 45.90625 40.484375 42.875 44.328125 
Q 39.84375 48.1875 33.796875 48.1875 
Q 26.515625 48.1875 22.3125 43.546875 
Q 18.109375 38.921875 18.109375 30.90625 
L 18.109375 0 
L 9.078125 0 
L 9.078125 54.6875 
L 18.109375 54.6875 
L 18.109375 46.1875 
Q 21.34375 51.125 25.703125 53.5625 
Q 30.078125 56 35.796875 56 
Q 45.21875 56 50.046875 50.171875 
Q 54.890625 44.34375 54.890625 33.015625 
z
" id="DejaVuSans-110"/>
      </defs>
      <use xlink:href="#DejaVuSans-35"/>
      <use x="83.789062" xlink:href="#DejaVuSans-32"/>
      <use x="115.576172" xlink:href="#DejaVuSans-115"/>
      <use x="167.675781" xlink:href="#DejaVuSans-97"/>
      <use x="228.955078" xlink:href="#DejaVuSans-109"/>
      <use x="326.367188" xlink:href="#DejaVuSans-112"/>
      <use x="389.84375" xlink:href="#DejaVuSans-108"/>
      <use x="417.626953" xlink:href="#DejaVuSans-101"/>
      <use x="479.150391" xlink:href="#DejaVuSans-115"/>
      <use x="531.25" xlink:href="#DejaVuSans-32"/>
      <use x="563.037109" xlink:href="#DejaVuSans-97"/>
      <use x="624.316406" xlink:href="#DejaVuSans-32"/>
      <use x="656.103516" xlink:href="#DejaVuSans-102"/>
      <use x="691.308594" xlink:href="#DejaVuSans-101"/>
      <use x="752.832031" xlink:href="#DejaVuSans-97"/>
      <use x="814.111328" xlink:href="#DejaVuSans-116"/>
      <use x="853.320312" xlink:href="#DejaVuSans-117"/>
      <use x="916.699219" xlink:href="#DejaVuSans-114"/>
      <use x="955.5625" xlink:href="#DejaVuSans-101"/>
      <use x="1017.085938" xlink:href="#DejaVuSans-32"/>
      <use x="1048.873047" xlink:href="#DejaVuSans-105"/>
      <use x="1076.65625" xlink:href="#DejaVuSans-115"/>
      <use x="1128.755859" xlink:href="#DejaVuSans-32"/>
      <use x="1160.542969" xlink:href="#DejaVuSans-112"/>
      <use x="1224.019531" xlink:href="#DejaVuSans-114"/>
      <use x="1262.882812" xlink:href="#DejaVuSans-101"/>
      <use x="1324.40625" xlink:href="#DejaVuSans-115"/>
      <use x="1376.505859" xlink:href="#DejaVuSans-101"/>
      <use x="1438.029297" xlink:href="#DejaVuSans-110"/>
      <use x="1501.408203" xlink:href="#DejaVuSans-116"/>
      <use x="1540.617188" xlink:href="#DejaVuSans-32"/>
      <use x="1572.404297" xlink:href="#DejaVuSans-105"/>
      <use x="1600.1875" xlink:href="#DejaVuSans-110"/>
     </g>
    </g>
   </g>
   <g id="matplotlib.axis_2">
    <g id="ytick_1">
     <g id="line2d_8">
      <defs>
       <path d="M 0 0 
L -3.5 0 
" id="mfe0926bd0c" style="stroke:#000000;stroke-width:0.8;"/>
      </defs>
      <g>
       <use style="stroke:#000000;stroke-width:0.8;" x="57.6" xlink:href="#mfe0926bd0c" y="307.584"/>
      </g>
     </g>
     <g id="text_9">
      <!-- 0 -->
      <g transform="translate(44.2375 311.383219)scale(0.1 -0.1)">
       <use xlink:href="#DejaVuSans-48"/>
      </g>
     </g>
    </g>
    <g id="ytick_2">
     <g id="line2d_9">
      <g>
       <use style="stroke:#000000;stroke-width:0.8;" x="57.6" xlink:href="#mfe0926bd0c" y="269.552788"/>
      </g>
     </g>
     <g id="text_10">
      <!-- 500 -->
      <g transform="translate(31.5125 273.352006)scale(0.1 -0.1)">
       <use xlink:href="#DejaVuSans-53"/>
       <use x="63.623047" xlink:href="#DejaVuSans-48"/>
       <use x="127.246094" xlink:href="#DejaVuSans-48"/>
      </g>
     </g>
    </g>
    <g id="ytick_3">
     <g id="line2d_10">
      <g>
       <use style="stroke:#000000;stroke-width:0.8;" x="57.6" xlink:href="#mfe0926bd0c" y="231.521575"/>
      </g>
     </g>
     <g id="text_11">
      <!-- 1000 -->
      <g transform="translate(25.15 235.320794)scale(0.1 -0.1)">
       <use xlink:href="#DejaVuSans-49"/>
       <use x="63.623047" xlink:href="#DejaVuSans-48"/>
       <use x="127.246094" xlink:href="#DejaVuSans-48"/>
       <use x="190.869141" xlink:href="#DejaVuSans-48"/>
      </g>
     </g>
    </g>
    <g id="ytick_4">
     <g id="line2d_11">
      <g>
       <use style="stroke:#000000;stroke-width:0.8;" x="57.6" xlink:href="#mfe0926bd0c" y="193.490363"/>
      </g>
     </g>
     <g id="text_12">
      <!-- 1500 -->
      <g transform="translate(25.15 197.289581)scale(0.1 -0.1)">
       <use xlink:href="#DejaVuSans-49"/>
       <use x="63.623047" xlink:href="#DejaVuSans-53"/>
       <use x="127.246094" xlink:href="#DejaVuSans-48"/>
       <use x="190.869141" xlink:href="#DejaVuSans-48"/>
      </g>
     </g>
    </g>
    <g id="ytick_5">
     <g id="line2d_12">
      <g>
       <use style="stroke:#000000;stroke-width:0.8;" x="57.6" xlink:href="#mfe0926bd0c" y="155.45915"/>
      </g>
     </g>
     <g id="text_13">
      <!-- 2000 -->
      <g transform="translate(25.15 159.258369)scale(0.1 -0.1)">
       <use xlink:href="#DejaVuSans-50"/>
       <use x="63.623047" xlink:href="#DejaVuSans-48"/>
       <use x="127.246094" xlink:href="#DejaVuSans-48"/>
       <use x="190.869141" xlink:href="#DejaVuSans-48"/>
      </g>
     </g>
    </g>
    <g id="ytick_6">
     <g id="line2d_13">
      <g>
       <use style="stroke:#000000;stroke-width:0.8;" x="57.6" xlink:href="#mfe0926bd0c" y="117.427938"/>
      </g>
     </g>
     <g id="text_14">
      <!-- 2500 -->
      <g transform="translate(25.15 121.227156)scale(0.1 -0.1)">
       <use xlink:href="#DejaVuSans-50"/>
       <use x="63.623047" xlink:href="#DejaVuSans-53"/>
       <use x="127.246094" xlink:href="#DejaVuSans-48"/>
       <use x="190.869141" xlink:href="#DejaVuSans-48"/>
      </g>
     </g>
    </g>
    <g id="ytick_7">
     <g id="line2d_14">
      <g>
       <use style="stroke:#000000;stroke-width:0.8;" x="57.6" xlink:href="#mfe0926bd0c" y="79.396725"/>
      </g>
     </g>
     <g id="text_15">
      <!-- 3000 -->
      <g transform="translate(25.15 83.195944)scale(0.1 -0.1)">
       <use xlink:href="#DejaVuSans-51"/>
       <use x="63.623047" xlink:href="#DejaVuSans-48"/>
       <use x="127.246094" xlink:href="#DejaVuSans-48"/>
       <use x="190.869141" xlink:href="#DejaVuSans-48"/>
      </g>
     </g>
    </g>
    <g id="text_16">
     <!-- # of features -->
     <g transform="translate(19.070312 207.369406)rotate(-90)scale(0.1 -0.1)">
      <defs>
       <path d="M 30.609375 48.390625 
Q 23.390625 48.390625 19.1875 42.75 
Q 14.984375 37.109375 14.984375 27.296875 
Q 14.984375 17.484375 19.15625 11.84375 
Q 23.34375 6.203125 30.609375 6.203125 
Q 37.796875 6.203125 41.984375 11.859375 
Q 46.1875 17.53125 46.1875 27.296875 
Q 46.1875 37.015625 41.984375 42.703125 
Q 37.796875 48.390625 30.609375 48.390625 
z
M 30.609375 56 
Q 42.328125 56 49.015625 48.375 
Q 55.71875 40.765625 55.71875 27.296875 
Q 55.71875 13.875 49.015625 6.21875 
Q 42.328125 -1.421875 30.609375 -1.421875 
Q 18.84375 -1.421875 12.171875 6.21875 
Q 5.515625 13.875 5.515625 27.296875 
Q 5.515625 40.765625 12.171875 48.375 
Q 18.84375 56 30.609375 56 
z
" id="DejaVuSans-111"/>
      </defs>
      <use xlink:href="#DejaVuSans-35"/>
      <use x="83.789062" xlink:href="#DejaVuSans-32"/>
      <use x="115.576172" xlink:href="#DejaVuSans-111"/>
      <use x="176.757812" xlink:href="#DejaVuSans-102"/>
      <use x="211.962891" xlink:href="#DejaVuSans-32"/>
      <use x="243.75" xlink:href="#DejaVuSans-102"/>
      <use x="278.955078" xlink:href="#DejaVuSans-101"/>
      <use x="340.478516" xlink:href="#DejaVuSans-97"/>
      <use x="401.757812" xlink:href="#DejaVuSans-116"/>
      <use x="440.966797" xlink:href="#DejaVuSans-117"/>
      <use x="504.345703" xlink:href="#DejaVuSans-114"/>
      <use x="543.208984" xlink:href="#DejaVuSans-101"/>
      <use x="604.732422" xlink:href="#DejaVuSans-115"/>
     </g>
    </g>
   </g>
   <g id="line2d_15">
    <path clip-path="url(#p7daf8a229e)" d="M 60.075611 307.584 
L 60.075611 41.472 
" style="fill:none;stroke:#ff0000;stroke-linecap:square;stroke-width:1.5;"/>
   </g>
   <g id="patch_342">
    <path d="M 57.6 307.584 
L 57.6 41.472 
" style="fill:none;stroke:#000000;stroke-linecap:square;stroke-linejoin:miter;stroke-width:0.8;"/>
   </g>
   <g id="patch_343">
    <path d="M 414.72 307.584 
L 414.72 41.472 
" style="fill:none;stroke:#000000;stroke-linecap:square;stroke-linejoin:miter;stroke-width:0.8;"/>
   </g>
   <g id="patch_344">
    <path d="M 57.6 307.584 
L 414.72 307.584 
" style="fill:none;stroke:#000000;stroke-linecap:square;stroke-linejoin:miter;stroke-width:0.8;"/>
   </g>
   <g id="patch_345">
    <path d="M 57.6 41.472 
L 414.72 41.472 
" style="fill:none;stroke:#000000;stroke-linecap:square;stroke-linejoin:miter;stroke-width:0.8;"/>
   </g>
   <g id="text_17">
    <!-- Trim Features that are present in less than 2.35 samples -->
    <g transform="translate(66.745313 35.472)scale(0.12 -0.12)">
     <defs>
      <path d="M -0.296875 72.90625 
L 61.375 72.90625 
L 61.375 64.59375 
L 35.5 64.59375 
L 35.5 0 
L 25.59375 0 
L 25.59375 64.59375 
L -0.296875 64.59375 
z
" id="DejaVuSans-84"/>
      <path d="M 9.8125 72.90625 
L 51.703125 72.90625 
L 51.703125 64.59375 
L 19.671875 64.59375 
L 19.671875 43.109375 
L 48.578125 43.109375 
L 48.578125 34.8125 
L 19.671875 34.8125 
L 19.671875 0 
L 9.8125 0 
z
" id="DejaVuSans-70"/>
      <path d="M 54.890625 33.015625 
L 54.890625 0 
L 45.90625 0 
L 45.90625 32.71875 
Q 45.90625 40.484375 42.875 44.328125 
Q 39.84375 48.1875 33.796875 48.1875 
Q 26.515625 48.1875 22.3125 43.546875 
Q 18.109375 38.921875 18.109375 30.90625 
L 18.109375 0 
L 9.078125 0 
L 9.078125 75.984375 
L 18.109375 75.984375 
L 18.109375 46.1875 
Q 21.34375 51.125 25.703125 53.5625 
Q 30.078125 56 35.796875 56 
Q 45.21875 56 50.046875 50.171875 
Q 54.890625 44.34375 54.890625 33.015625 
z
" id="DejaVuSans-104"/>
      <path d="M 10.6875 12.40625 
L 21 12.40625 
L 21 0 
L 10.6875 0 
z
" id="DejaVuSans-46"/>
     </defs>
     <use xlink:href="#DejaVuSans-84"/>
     <use x="46.333984" xlink:href="#DejaVuSans-114"/>
     <use x="87.447266" xlink:href="#DejaVuSans-105"/>
     <use x="115.230469" xlink:href="#DejaVuSans-109"/>
     <use x="212.642578" xlink:href="#DejaVuSans-32"/>
     <use x="244.429688" xlink:href="#DejaVuSans-70"/>
     <use x="296.449219" xlink:href="#DejaVuSans-101"/>
     <use x="357.972656" xlink:href="#DejaVuSans-97"/>
     <use x="419.251953" xlink:href="#DejaVuSans-116"/>
     <use x="458.460938" xlink:href="#DejaVuSans-117"/>
     <use x="521.839844" xlink:href="#DejaVuSans-114"/>
     <use x="560.703125" xlink:href="#DejaVuSans-101"/>
     <use x="622.226562" xlink:href="#DejaVuSans-115"/>
     <use x="674.326172" xlink:href="#DejaVuSans-32"/>
     <use x="706.113281" xlink:href="#DejaVuSans-116"/>
     <use x="745.322266" xlink:href="#DejaVuSans-104"/>
     <use x="808.701172" xlink:href="#DejaVuSans-97"/>
     <use x="869.980469" xlink:href="#DejaVuSans-116"/>
     <use x="909.189453" xlink:href="#DejaVuSans-32"/>
     <use x="940.976562" xlink:href="#DejaVuSans-97"/>
     <use x="1002.255859" xlink:href="#DejaVuSans-114"/>
     <use x="1041.119141" xlink:href="#DejaVuSans-101"/>
     <use x="1102.642578" xlink:href="#DejaVuSans-32"/>
     <use x="1134.429688" xlink:href="#DejaVuSans-112"/>
     <use x="1197.90625" xlink:href="#DejaVuSans-114"/>
     <use x="1236.769531" xlink:href="#DejaVuSans-101"/>
     <use x="1298.292969" xlink:href="#DejaVuSans-115"/>
     <use x="1350.392578" xlink:href="#DejaVuSans-101"/>
     <use x="1411.916016" xlink:href="#DejaVuSans-110"/>
     <use x="1475.294922" xlink:href="#DejaVuSans-116"/>
     <use x="1514.503906" xlink:href="#DejaVuSans-32"/>
     <use x="1546.291016" xlink:href="#DejaVuSans-105"/>
     <use x="1574.074219" xlink:href="#DejaVuSans-110"/>
     <use x="1637.453125" xlink:href="#DejaVuSans-32"/>
     <use x="1669.240234" xlink:href="#DejaVuSans-108"/>
     <use x="1697.023438" xlink:href="#DejaVuSans-101"/>
     <use x="1758.546875" xlink:href="#DejaVuSans-115"/>
     <use x="1810.646484" xlink:href="#DejaVuSans-115"/>
     <use x="1862.746094" xlink:href="#DejaVuSans-32"/>
     <use x="1894.533203" xlink:href="#DejaVuSans-116"/>
     <use x="1933.742188" xlink:href="#DejaVuSans-104"/>
     <use x="1997.121094" xlink:href="#DejaVuSans-97"/>
     <use x="2058.400391" xlink:href="#DejaVuSans-110"/>
     <use x="2121.779297" xlink:href="#DejaVuSans-32"/>
     <use x="2153.566406" xlink:href="#DejaVuSans-50"/>
     <use x="2217.189453" xlink:href="#DejaVuSans-46"/>
     <use x="2248.976562" xlink:href="#DejaVuSans-51"/>
     <use x="2312.599609" xlink:href="#DejaVuSans-53"/>
     <use x="2376.222656" xlink:href="#DejaVuSans-32"/>
     <use x="2408.009766" xlink:href="#DejaVuSans-115"/>
     <use x="2460.109375" xlink:href="#DejaVuSans-97"/>
     <use x="2521.388672" xlink:href="#DejaVuSans-109"/>
     <use x="2618.800781" xlink:href="#DejaVuSans-112"/>
     <use x="2682.277344" xlink:href="#DejaVuSans-108"/>
     <use x="2710.060547" xlink:href="#DejaVuSans-101"/>
     <use x="2771.583984" xlink:href="#DejaVuSans-115"/>
    </g>
   </g>
  </g>
 </g>
 <defs>
  <clipPath id="p7daf8a229e">
   <rect height="266.112" width="357.12" x="57.6" y="41.472"/>
  </clipPath>
 </defs>
</svg>
